<?xml version="1.0" encoding="UTF-8"?>
<svg version="1.1" xmlns="http://www.w3.org/2000/svg" width="4675" height="4675">
<path d="M0 0 C1542.75 0 3085.5 0 4675 0 C4675 1542.75 4675 3085.5 4675 4675 C3132.25 4675 1589.5 4675 0 4675 C0 3132.25 0 1589.5 0 0 Z " fill="#0C0C0C" transform="translate(0,0)"/>
<path d="M0 0 C3.1486587 0.00543734 6.29730989 0.00780659 9.44597244 0.00987244 C39.01856387 0.04010899 68.45295306 0.36852267 97.92140579 3.0900116 C100.45819305 3.32189922 102.99583538 3.54049463 105.53407669 3.75584412 C192.52571835 11.19356219 278.80853703 28.37926424 362.07191849 54.58146667 C364.41470944 55.31809163 366.75892425 56.05003232 369.10341263 56.78123474 C418.10599163 72.10001807 465.7354903 90.97789982 512.4139595 112.31785583 C513.12854324 112.64421021 513.84312698 112.97056458 514.57936478 113.30680847 C544.26440344 126.88190323 573.46645135 141.43367861 601.73231888 157.77781677 C604.51623652 159.37659249 607.31402916 160.94820829 610.1170845 162.51316833 C637.6303045 177.88308619 664.32248315 194.64730903 690.4139595 212.31785583 C691.08588333 212.77225037 691.75780716 213.2266449 692.45009232 213.69480896 C703.26051962 221.02123214 713.86917179 228.61508109 724.4139595 236.31785583 C725.2183345 236.90534607 726.0227095 237.4928363 726.8514595 238.09812927 C740.25843187 247.90409917 753.47713499 257.89652498 766.4139595 268.31785583 C768.05955028 269.63065994 769.70538665 270.94315625 771.3514595 272.25535583 C780.92384949 279.92220007 790.32235984 287.76351831 799.61122513 295.76951599 C801.38881863 297.29626274 803.17347965 298.81427292 804.9608345 300.32957458 C812.41851413 306.66131312 819.67480149 313.16814238 826.82606888 319.84324646 C828.94924269 321.81495153 831.09207308 323.76462714 833.23476028 325.71507263 C837.48513855 329.58554746 841.65496123 333.50502682 845.67738724 337.61375427 C847.36898574 339.273723 849.1188721 340.80440506 850.92567825 342.33738708 C855.83900363 346.61302795 860.43935597 351.19258922 865.03236771 355.80589294 C866.47421172 357.25309969 867.92133066 358.69487609 869.36903763 360.13621521 C874.0699106 364.83406957 878.63293839 369.59708734 882.95863724 374.64427185 C884.84253262 376.81070413 886.85397961 378.81936788 888.9139595 380.81785583 C892.26329679 384.12772282 895.41321907 387.52532533 898.4764595 391.09910583 C900.39998728 393.30185538 902.37501064 395.45099284 904.36415482 397.59446716 C909.19336502 402.80018364 913.77587554 408.13114545 918.23036575 413.66551208 C920.40793018 416.3105322 922.66714713 418.84998108 924.9764595 421.38035583 C929.35060719 426.19267375 933.40599591 431.19898929 937.4139595 436.31785583 C938.27816338 437.41320741 939.14276869 438.50824234 940.0077095 439.60301208 C955.10037435 458.72682024 969.79931584 478.10702653 983.4139595 498.31785583 C983.89042923 499.02232849 984.36689896 499.72680115 984.85780716 500.45262146 C1001.92121857 525.70759479 1017.58394804 551.72089121 1031.95936966 578.60105896 C1032.92064348 580.39646935 1033.88638952 582.18949322 1034.8568306 583.97996521 C1072.15572777 652.85111115 1098.28822833 730.41780059 1110.4139595 869.31785583 C1103.8139595 869.64785583 1097.2139595 869.97785583 1090.4139595 870.31785583 C1095.74467714 881.727462 1101.22607176 893.05128727 1106.8514595 904.31785583 C1107.3016394 905.22196198 1107.3016394 905.22196198 1107.76091385 906.14433289 C1111.42701696 913.50152703 1115.18625041 920.80274349 1119.03383255 928.06639099 C1124.28534047 938.01633892 1129.38306349 948.04003431 1134.437397 958.09129333 C1134.8866013 958.98437824 1135.33580559 959.87746315 1135.79862213 960.79761124 C1138.16588433 965.5057535 1140.53039178 970.21526842 1142.89296341 974.92576599 C1144.82881846 978.78405766 1146.7704846 982.63934008 1148.71718216 986.49217224 C1151.0978478 991.20396361 1153.46848767 995.920673 1155.83219147 1000.64099503 C1156.72416326 1002.41828258 1157.61950052 1004.19388575 1158.51846313 1005.96764755 C1167.78504077 1024.26530461 1175.40302779 1042.64870042 1169.43349075 1063.41941833 C1163.38495736 1080.61486577 1150.01806746 1091.10435531 1134.078022 1098.96238708 C1117.18679356 1106.59629468 1098.90212553 1110.92166809 1080.41786575 1112.10691833 C1078.34370434 1112.20668198 1078.34370434 1112.20668198 1076.4139595 1113.31785583 C1076.40809326 1113.96328339 1076.40222702 1114.60871094 1076.39618301 1115.2736969 C1076.33172023 1122.05610574 1076.24717151 1128.83806301 1076.15150833 1135.62010193 C1076.11847141 1138.14347845 1076.0903751 1140.66692511 1076.06752396 1143.19041443 C1075.77576951 1174.56332886 1068.09667202 1195.8197686 1049.55849075 1221.00535583 C1045.65392535 1226.31980504 1042.00412638 1231.78617877 1038.4139595 1237.31785583 C1038.9708345 1237.41582458 1039.5277095 1237.51379333 1040.1014595 1237.61473083 C1052.38973526 1240.02256865 1061.57575212 1246.50909922 1068.8514595 1256.81785583 C1074.11611866 1265.33946515 1075.55965479 1274.34262233 1075.57509232 1284.24412537 C1075.58253967 1285.40158516 1075.58253967 1285.40158516 1075.59013748 1286.58242798 C1075.60467721 1289.12185071 1075.6115486 1291.6612109 1075.6170845 1294.20066833 C1075.61991188 1295.07382565 1075.62273926 1295.94698296 1075.62565231 1296.84659958 C1075.6406145 1301.47048492 1075.64986177 1306.09433932 1075.65419388 1310.71824646 C1075.65966351 1315.46558624 1075.68366815 1320.21263705 1075.71216583 1324.95988655 C1075.73090662 1328.63533826 1075.73600394 1332.31072207 1075.73752975 1335.9862175 C1075.74053279 1337.7347 1075.74848061 1339.48318198 1075.76171494 1341.23161697 C1075.87522581 1357.38529484 1074.35367255 1372.21772324 1062.8514595 1384.56785583 C1055.25746587 1391.75502838 1046.65418478 1395.61115162 1036.4139595 1397.31785583 C1036.4139595 1397.97785583 1036.4139595 1398.63785583 1036.4139595 1399.31785583 C1037.42845169 1399.41969177 1038.44294388 1399.52152771 1039.48817825 1399.62644958 C1050.12468897 1401.4997455 1059.52998377 1408.23081628 1067.4139595 1415.31785583 C1068.02497513 1415.83605896 1068.63599075 1416.35426208 1069.265522 1416.88816833 C1081.41285613 1427.92615688 1089.76814941 1445.77754191 1090.60606384 1462.04813004 C1090.71428037 1466.72636967 1090.70759937 1471.40473678 1090.70448685 1476.08396912 C1090.71047827 1477.8835986 1090.71728522 1479.68322553 1090.72484207 1481.48284912 C1090.74244969 1486.35301658 1090.74719532 1491.22311367 1090.74847364 1496.09330988 C1090.7498991 1499.14266209 1090.75417623 1502.19199664 1090.75946808 1505.24134445 C1090.77795309 1515.89869565 1090.78614086 1526.55599695 1090.78456497 1537.21336365 C1090.78336493 1547.11593726 1090.80444424 1557.01829244 1090.8360523 1566.92081082 C1090.86229039 1575.44770578 1090.87292907 1583.97452975 1090.87165415 1592.50146472 C1090.87114661 1597.58297025 1090.87671401 1602.66428163 1090.89801025 1607.74574661 C1090.91751926 1612.53115664 1090.91743141 1617.31618989 1090.90297699 1622.101614 C1090.9009032 1623.84656392 1090.90550326 1625.59153822 1090.91769791 1627.33644676 C1091.05113301 1647.77187856 1086.16501803 1666.1703703 1071.546772 1681.18504333 C1070.84294388 1681.88887146 1070.13911575 1682.59269958 1069.4139595 1683.31785583 C1068.87513138 1683.93918396 1068.33630325 1684.56051208 1067.781147 1685.20066833 C1061.41302472 1692.33680537 1052.3252266 1696.62718127 1043.68300247 1700.43626404 C1042.88103439 1700.79041885 1042.07906631 1701.14457367 1041.25279617 1701.50946045 C1040.64598007 1701.77623093 1040.03916397 1702.0430014 1039.4139595 1702.31785583 C1040.50484627 1702.3266552 1040.50484627 1702.3266552 1041.61777115 1702.33563232 C1048.51641192 1702.39385793 1055.41478356 1702.46610201 1062.31311131 1702.55357075 C1065.85850378 1702.59804483 1069.40378741 1702.63734919 1072.94935989 1702.66429138 C1077.03810401 1702.6955987 1081.12625642 1702.75037557 1085.21474075 1702.80613708 C1086.47039337 1702.81252701 1087.72604599 1702.81891693 1089.01974869 1702.82550049 C1103.18672035 1703.05910591 1113.73715406 1706.2027327 1123.7264595 1716.50535583 C1132.69647732 1726.03952571 1131.99106189 1738.79721279 1131.93153763 1750.96263123 C1131.93696666 1752.83337954 1131.94409368 1754.70412358 1131.95277786 1756.57485962 C1131.97094017 1761.63375145 1131.96396798 1766.69231514 1131.95126152 1771.75121236 C1131.94107449 1777.07750735 1131.95054502 1782.40377582 1131.95680618 1787.73007202 C1131.96407554 1796.68850183 1131.95452347 1805.64679962 1131.93544388 1814.60520935 C1131.91377635 1824.89616084 1131.92065543 1835.186794 1131.9427495 1845.47773749 C1131.96104379 1854.36069737 1131.9633911 1863.24356267 1131.95299482 1872.12653536 C1131.94682333 1877.41010407 1131.94574385 1882.69352459 1131.95914078 1887.97708321 C1132.08881287 1947.34942952 1119.36949744 2000.29791161 1078.437397 2045.07176208 C1076.83984022 2046.8451118 1075.33012458 2048.63469566 1073.8514595 2050.50535583 C1070.66945515 2054.17689932 1067.11549365 2057.18300607 1063.4139595 2060.31785583 C1062.49872513 2061.13254333 1061.58349075 2061.94723083 1060.640522 2062.78660583 C1026.19767431 2093.21204867 979.82181212 2111.75237338 933.74380141 2111.56970483 C932.44589633 2111.5726337 931.14799124 2111.57556256 929.8107557 2111.57858018 C926.23441374 2111.58636804 922.65818069 2111.58187893 919.08184039 2111.57524436 C915.16662929 2111.57022418 911.25143421 2111.57691255 907.33622566 2111.58204803 C900.45668586 2111.58947428 893.57717704 2111.58950099 886.69763539 2111.58465854 C876.39862729 2111.57744501 866.09964582 2111.58178713 855.80063842 2111.58833989 C838.24622527 2111.5991681 820.69182285 2111.60049778 803.1374073 2111.59664154 C785.34911829 2111.59276514 767.56083728 2111.59322055 749.77254868 2111.59895134 C748.64878705 2111.59931017 747.52502543 2111.59966899 746.36721042 2111.60003869 C741.79025258 2111.60151361 737.21329475 2111.60301801 732.63633693 2111.60456016 C686.17502711 2111.6201962 639.71372279 2111.622874 593.25241082 2111.62040409 C586.83244263 2111.62006565 580.41247445 2111.61974355 573.99250627 2111.61943841 C572.71734873 2111.61937737 571.44219119 2111.61931632 570.12839252 2111.61925343 C541.87100778 2111.61798162 513.6136238 2111.62058276 485.35623929 2111.62396448 C478.90437063 2111.62473522 472.45250196 2111.62547995 466.0006333 2111.62622949 C463.4112432 2111.62653118 460.82185311 2111.62683306 458.23246302 2111.62713513 C456.94895017 2111.62728481 455.66543732 2111.62743449 454.34303014 2111.62758871 C451.74684582 2111.62789224 449.1506615 2111.62819692 446.55447717 2111.62850275 C373.57299337 2111.63709533 300.5915105 2111.64190028 227.61002634 2111.63767468 C225.54325239 2111.63755509 223.47647845 2111.63743671 221.40970451 2111.63731859 C206.19658817 2111.63644717 190.98347183 2111.63551657 175.7703555 2111.63456795 C174.38295437 2111.63448157 172.99555323 2111.6343952 171.6081521 2111.63430883 C170.22018491 2111.6342224 168.83221772 2111.63413595 167.44425053 2111.63404951 C166.75700612 2111.63400672 166.06976171 2111.63396393 165.36169171 2111.63391984 C161.88918955 2111.63370345 158.41668739 2111.63348601 154.94418524 2111.63326661 C89.35773334 2111.62912804 23.77128465 2111.62805045 -41.81516647 2111.64042664 C-42.8509205 2111.64062206 -42.8509205 2111.64062206 -43.90759886 2111.64082143 C-64.78806875 2111.64477335 -85.66853855 2111.64913291 -106.54900834 2111.65359259 C-129.38140897 2111.65846872 -152.2138096 2111.66330269 -175.04621029 2111.66787434 C-175.72787322 2111.66801111 -176.40953615 2111.66814788 -177.11185553 2111.66828879 C-219.80924833 2111.67684466 -262.5066402 2111.68173992 -305.20403385 2111.6825819 C-307.18226399 2111.68262145 -307.18226399 2111.68262145 -309.20045838 2111.6826618 C-338.15102062 2111.68320257 -367.10158278 2111.68283015 -396.052145 2111.68162209 C-406.41101087 2111.68119646 -416.76987674 2111.68083133 -427.12874261 2111.68049264 C-429.70577563 2111.68040734 -432.28280864 2111.68031841 -434.85984165 2111.68022583 C-475.92746473 2111.67877689 -516.99508066 2111.68590436 -558.06270202 2111.69722979 C-600.57246414 2111.70887701 -643.08221352 2111.70944659 -685.59197571 2111.69738636 C-690.15719192 2111.69613453 -694.72240813 2111.69493104 -699.28762436 2111.69376564 C-700.40800702 2111.69347535 -701.52838968 2111.69318505 -702.68272333 2111.69288596 C-720.42075834 2111.6885611 -738.15877522 2111.69429047 -755.89680738 2111.70420583 C-773.33999385 2111.71374463 -790.78315238 2111.71256583 -808.22633723 2111.69999961 C-818.45122043 2111.69295234 -828.67602325 2111.69407144 -838.90090072 2111.70734799 C-845.69718025 2111.71534962 -852.4933991 2111.71241242 -859.28967308 2111.70069835 C-863.13868168 2111.69436646 -866.98753183 2111.6925521 -870.83653143 2111.70426556 C-886.67309068 2111.74926697 -902.00790235 2111.3810709 -917.5860405 2108.31785583 C-918.63045971 2108.11445049 -919.67487891 2107.91104514 -920.75094719 2107.701476 C-923.0090132 2107.23934364 -925.23107326 2106.71210868 -927.4610405 2106.13035583 C-928.27161911 2105.92023865 -929.08219772 2105.71012146 -929.91733932 2105.49363708 C-961.93902159 2096.8786512 -989.81275194 2081.15480093 -1014.5860405 2059.31785583 C-1015.42908737 2058.5972699 -1016.27213425 2057.87668396 -1017.140728 2057.13426208 C-1022.0929148 2052.85737348 -1026.38580133 2048.32420151 -1030.5860405 2043.31785583 C-1031.42006393 2042.37168396 -1032.25408737 2041.42551208 -1033.11338425 2040.45066833 C-1061.97814115 2007.52841001 -1081.74449458 1962.07776123 -1081.73321152 1917.94459534 C-1081.73688821 1917.15245758 -1081.74056489 1916.36031982 -1081.744353 1915.54417789 C-1081.75527661 1912.9168098 -1081.7592141 1910.28948139 -1081.76304245 1907.66209412 C-1081.7693154 1905.76730731 -1081.77596292 1903.87252171 -1081.78295517 1901.97773743 C-1081.80388951 1895.78122294 -1081.81434384 1889.58470849 -1081.82432175 1883.38816833 C-1081.82837252 1881.24843712 -1081.83248953 1879.10870603 -1081.83667183 1876.96897507 C-1081.85569583 1866.91870872 -1081.86993575 1856.86844962 -1081.8782838 1846.81816876 C-1081.88806246 1835.23933912 -1081.91441021 1823.66070031 -1081.95478469 1812.08193791 C-1081.984976 1803.11435352 -1081.99975532 1794.14682378 -1082.00306481 1785.17918956 C-1082.00541069 1779.83064265 -1082.01431209 1774.48230028 -1082.03952599 1769.13380814 C-1082.06286626 1764.10219931 -1082.06701599 1759.07092894 -1082.0567646 1754.03927994 C-1082.05627068 1752.19911572 -1082.06254858 1750.35893447 -1082.07632065 1748.51882172 C-1082.17414885 1734.66653437 -1081.17994658 1723.96468686 -1071.078228 1713.54832458 C-1060.32713827 1703.92626779 -1049.27585615 1703.0285796 -1035.36338425 1702.90379333 C-1034.0086008 1702.88504615 -1032.65382859 1702.86547021 -1031.29906845 1702.84510803 C-1027.76303919 1702.79415508 -1024.22697223 1702.75433442 -1020.69077682 1702.71696472 C-1017.07048627 1702.67669169 -1013.45034754 1702.62570666 -1009.83018112 1702.57566833 C-1002.74891254 1702.47934643 -995.6675483 1702.39480427 -988.5860405 1702.31785583 C-989.41395096 1701.97463791 -990.24186142 1701.63141998 -991.09486008 1701.27780151 C-992.72075562 1700.6023806 -992.72075562 1700.6023806 -994.37949753 1699.91331482 C-995.45490799 1699.46697189 -996.53031845 1699.02062897 -997.63831711 1698.5607605 C-1016.82179878 1690.47206435 -1028.93972045 1675.80895754 -1036.9610405 1657.00535583 C-1041.04256396 1646.68711193 -1040.87808631 1636.41177358 -1040.8606987 1625.52000427 C-1040.86505097 1623.71713043 -1040.87023584 1621.91425844 -1040.87618637 1620.11138916 C-1040.88953412 1615.23308466 -1040.89015961 1610.35485785 -1040.88762307 1605.47653866 C-1040.8865502 1601.39391183 -1040.89144495 1597.31130052 -1040.89622849 1593.22867703 C-1040.9073097 1583.58993437 -1040.9077693 1573.95123068 -1040.90171432 1564.31248474 C-1040.89567903 1554.3940021 -1040.90797747 1544.47566147 -1040.92928439 1534.55720305 C-1040.94694434 1526.02014954 -1040.95289472 1517.48314105 -1040.94964665 1508.94606996 C-1040.94784019 1503.85684231 -1040.95040578 1498.76771592 -1040.96436119 1493.67850494 C-1040.9770061 1488.88822304 -1040.97493286 1484.09816113 -1040.9619503 1479.30788231 C-1040.95959918 1477.55887208 -1040.9622661 1475.80984604 -1040.97057343 1474.06085396 C-1041.02783436 1461.05844138 -1040.10556024 1448.85745849 -1033.8985405 1437.13035583 C-1033.55186325 1436.45819031 -1033.205186 1435.78602478 -1032.84800339 1435.0934906 C-1029.74509776 1429.2635558 -1026.03980809 1424.19969516 -1021.5860405 1419.31785583 C-1020.8106694 1418.40519958 -1020.8106694 1418.40519958 -1020.01963425 1417.47410583 C-1012.69047429 1409.39182418 -1001.16789419 1402.15157321 -990.5860405 1399.31785583 C-989.2660405 1399.31785583 -987.9460405 1399.31785583 -986.5860405 1399.31785583 C-986.5860405 1398.65785583 -986.5860405 1397.99785583 -986.5860405 1397.31785583 C-987.71139206 1397.09742615 -987.71139206 1397.09742615 -988.859478 1396.87254333 C-1000.79526155 1394.25689303 -1009.88688643 1388.93075757 -1017.5860405 1379.31785583 C-1025.67595772 1366.48139189 -1025.9003528 1353.75727444 -1025.88682175 1339.04441833 C-1025.89071711 1337.27141725 -1025.89505348 1335.49841708 -1025.89980698 1333.72541809 C-1025.9072363 1330.02215032 -1025.90700191 1326.31897795 -1025.90171432 1322.6157074 C-1025.89592425 1317.89984431 -1025.91285562 1313.18437457 -1025.936059 1308.46857643 C-1025.95088124 1304.81027492 -1025.95165656 1301.15206631 -1025.94854927 1297.49374008 C-1025.94905823 1295.75643002 -1025.95421483 1294.01911416 -1025.96436119 1292.28183365 C-1026.04717722 1276.12140373 -1024.41014068 1261.21656801 -1012.7110405 1248.94285583 C-1001.42689183 1238.47236494 -989.36863282 1236.76047391 -974.5860405 1235.31785583 C-975.4316655 1234.60500427 -976.2772905 1233.89215271 -977.1485405 1233.15769958 C-980.10137073 1230.66653544 -983.04804106 1228.16818727 -985.99277878 1225.66746521 C-987.23699784 1224.61352053 -988.48664849 1223.56598709 -989.73838425 1222.52098083 C-991.73123377 1220.82902106 -993.66425901 1219.09050437 -995.5860405 1217.31785583 C-996.09248093 1216.85073181 -996.59892136 1216.38360779 -997.12070847 1215.90232849 C-1011.35325447 1202.62809371 -1023.77890077 1187.49525908 -1025.5860405 1167.31785583 C-1025.71885124 1163.079068 -1025.70245235 1158.84351577 -1025.68369675 1154.60301208 C-1025.6822818 1153.39213425 -1025.68086685 1152.18125641 -1025.67940903 1150.9336853 C-1025.67383076 1147.0825499 -1025.66128219 1143.23147354 -1025.6485405 1139.38035583 C-1025.64352269 1136.76251814 -1025.63896027 1134.14467952 -1025.63486862 1131.52684021 C-1025.62386843 1125.12382542 -1025.60715193 1118.72084485 -1025.5860405 1112.31785583 C-1026.16556976 1112.26905273 -1026.74509903 1112.22024963 -1027.34218979 1112.16996765 C-1048.6519978 1110.34454303 -1048.6519978 1110.34454303 -1057.3985405 1108.06785583 C-1058.68607224 1107.74579163 -1058.68607224 1107.74579163 -1059.99961472 1107.41722107 C-1075.9752883 1103.27719275 -1090.97848742 1097.21438385 -1103.5860405 1086.31785583 C-1104.3491655 1085.67332458 -1105.1122905 1085.02879333 -1105.8985405 1084.36473083 C-1115.35932901 1075.73495753 -1120.74666128 1064.12393684 -1121.83213425 1051.44285583 C-1122.35608904 1038.48688272 -1118.80505822 1027.32375067 -1113.203228 1015.85691833 C-1112.73687439 1014.89231689 -1112.27052078 1013.92771545 -1111.79003525 1012.93388367 C-1103.80411452 996.49803537 -1095.58757782 980.17372983 -1087.4075737 963.83396912 C-1085.56128383 960.14399483 -1083.7179658 956.45253949 -1081.87462902 952.76108932 C-1080.06654883 949.1412732 -1078.25652293 945.52243257 -1076.44595146 941.903862 C-1075.59676049 940.20613475 -1074.74813572 938.50812414 -1073.90015602 936.80979156 C-1069.05594401 927.11077273 -1064.12940261 917.46286946 -1059.04856396 907.88534927 C-1054.88526504 900.03376095 -1050.91545113 892.08863057 -1046.9610405 884.13035583 C-1046.23597408 882.67518103 -1045.51071392 881.22010274 -1044.78525925 879.76512146 C-1043.0496229 876.28396473 -1041.31789592 872.80090501 -1039.5860405 869.31785583 C-1047.5060405 869.31785583 -1055.4260405 869.31785583 -1063.5860405 869.31785583 C-1064.50031201 821.20008461 -1058.01008453 774.02375392 -1046.5860405 727.31785583 C-1046.42833176 726.66724182 -1046.27062302 726.01662781 -1046.10813522 725.34629822 C-1040.82788205 703.58822803 -1033.95812633 682.44021619 -1026.5860405 661.31785583 C-1026.16064987 660.09437439 -1025.73525925 658.87089294 -1025.296978 657.6103363 C-1008.80452724 610.58690111 -986.25485356 564.93720755 -960.5860405 522.31785583 C-960.07283249 521.4612738 -959.55962448 520.60469177 -959.03086472 519.72215271 C-941.51779067 490.59216718 -922.12315523 462.59403204 -901.39707565 435.67234802 C-899.81289937 433.61279072 -898.23467975 431.5489353 -896.66025925 429.48191833 C-889.2759541 419.79987078 -881.55743833 410.41935682 -873.66563034 401.1493988 C-870.81107824 397.79045976 -868.02687774 394.38580444 -865.2735405 390.94285583 C-860.9885335 385.66959497 -856.39300037 380.72403644 -851.72153854 375.79490662 C-848.85188776 372.7646671 -846.03349322 369.70823177 -843.30161667 366.55271912 C-839.84440082 362.59126189 -836.30512356 358.71796916 -832.70713425 354.88426208 C-832.06618317 354.20126541 -831.42523209 353.51826874 -830.76485825 352.8145752 C-823.90652982 345.5439701 -816.87235889 338.45274132 -809.79478073 331.39622498 C-807.62179715 329.22867941 -805.45431687 327.05573083 -803.28721237 324.88230896 C-801.87802821 323.47378456 -800.46853444 322.06556984 -799.05869675 320.65769958 C-798.42520813 320.02218674 -797.79171951 319.38667389 -797.13903427 318.73190308 C-793.33395943 314.94643734 -789.4087109 311.3556314 -785.34789658 307.84613037 C-783.41402215 306.16864316 -781.54084739 304.43951056 -779.69150925 302.66941833 C-779.05173141 302.06122253 -778.41195358 301.45302673 -777.75278854 300.82640076 C-776.77306076 299.89404602 -776.77306076 299.89404602 -775.7735405 298.94285583 C-770.3970255 293.86050046 -764.9472846 289.03391429 -759.16025925 284.42332458 C-756.37573701 282.14584737 -753.73190246 279.75473576 -751.0860405 277.31785583 C-746.27559777 272.90037886 -741.30633662 268.74845996 -736.22324753 264.65037537 C-734.36215982 263.1356398 -732.51846843 261.60113798 -730.67588425 260.06394958 C-722.56931551 253.31066847 -714.35375149 246.78309721 -705.87119675 240.50926208 C-702.74813592 238.19650893 -699.65881211 235.84430591 -696.58213425 233.47019958 C-686.56339009 225.74445495 -676.42409647 218.32948118 -665.9297905 211.26316833 C-662.1115238 208.69049474 -658.37182337 206.02529901 -654.6485405 203.31785583 C-646.66091834 197.54718715 -638.37852504 192.23107876 -630.08262253 186.91746521 C-627.7873376 185.44683086 -625.49704656 183.96870859 -623.20713425 182.48973083 C-590.65965307 161.5902038 -556.84447684 142.75342097 -522.37772751 125.22996521 C-520.61141667 124.3307743 -518.84700439 123.42785715 -517.08262253 122.52488708 C-476.18346606 101.6166429 -433.86021099 83.69702864 -390.5860405 68.31785583 C-389.72299301 68.01041443 -388.85994553 67.70297302 -387.97074509 67.38621521 C-298.84931988 35.69073957 -206.30850431 14.55810641 -100.9610405 4.06785583 C-100.1401796 3.99072357 -99.3193187 3.91359131 -98.47358322 3.8341217 C-92.18296991 3.25130613 -85.88775193 2.76390363 -79.5860405 2.31785583 C-77.7575708 2.18705124 -77.7575708 2.18705124 -75.89216232 2.05360413 C-50.59814107 0.28273319 -25.34937639 -0.04554232 0 0 Z " fill="#A5602F" transform="translate(2312.586040496826,1281.682144165039)"/>
<path d="M0 0 C3.1486587 0.00543734 6.29730989 0.00780659 9.44597244 0.00987244 C39.01856387 0.04010899 68.45295306 0.36852267 97.92140579 3.0900116 C100.45819305 3.32189922 102.99583538 3.54049463 105.53407669 3.75584412 C192.52571835 11.19356219 278.80853703 28.37926424 362.07191849 54.58146667 C364.41470944 55.31809163 366.75892425 56.05003232 369.10341263 56.78123474 C418.10599163 72.10001807 465.7354903 90.97789982 512.4139595 112.31785583 C513.12854324 112.64421021 513.84312698 112.97056458 514.57936478 113.30680847 C544.26440344 126.88190323 573.46645135 141.43367861 601.73231888 157.77781677 C604.51623652 159.37659249 607.31402916 160.94820829 610.1170845 162.51316833 C637.6303045 177.88308619 664.32248315 194.64730903 690.4139595 212.31785583 C691.08588333 212.77225037 691.75780716 213.2266449 692.45009232 213.69480896 C703.26051962 221.02123214 713.86917179 228.61508109 724.4139595 236.31785583 C725.2183345 236.90534607 726.0227095 237.4928363 726.8514595 238.09812927 C740.25843187 247.90409917 753.47713499 257.89652498 766.4139595 268.31785583 C768.05955028 269.63065994 769.70538665 270.94315625 771.3514595 272.25535583 C780.92384949 279.92220007 790.32235984 287.76351831 799.61122513 295.76951599 C801.38881863 297.29626274 803.17347965 298.81427292 804.9608345 300.32957458 C812.41851413 306.66131312 819.67480149 313.16814238 826.82606888 319.84324646 C828.94924269 321.81495153 831.09207308 323.76462714 833.23476028 325.71507263 C837.48513855 329.58554746 841.65496123 333.50502682 845.67738724 337.61375427 C847.36898574 339.273723 849.1188721 340.80440506 850.92567825 342.33738708 C855.83900363 346.61302795 860.43935597 351.19258922 865.03236771 355.80589294 C866.47421172 357.25309969 867.92133066 358.69487609 869.36903763 360.13621521 C874.0699106 364.83406957 878.63293839 369.59708734 882.95863724 374.64427185 C884.84253262 376.81070413 886.85397961 378.81936788 888.9139595 380.81785583 C892.26329679 384.12772282 895.41321907 387.52532533 898.4764595 391.09910583 C900.39998728 393.30185538 902.37501064 395.45099284 904.36415482 397.59446716 C909.19336502 402.80018364 913.77587554 408.13114545 918.23036575 413.66551208 C920.40793018 416.3105322 922.66714713 418.84998108 924.9764595 421.38035583 C929.35060719 426.19267375 933.40599591 431.19898929 937.4139595 436.31785583 C938.27816338 437.41320741 939.14276869 438.50824234 940.0077095 439.60301208 C955.10037435 458.72682024 969.79931584 478.10702653 983.4139595 498.31785583 C983.89042923 499.02232849 984.36689896 499.72680115 984.85780716 500.45262146 C1001.92121857 525.70759479 1017.58394804 551.72089121 1031.95936966 578.60105896 C1032.92064348 580.39646935 1033.88638952 582.18949322 1034.8568306 583.97996521 C1072.15572777 652.85111115 1098.28822833 730.41780059 1110.4139595 869.31785583 C1103.1539595 869.64785583 1095.8939595 869.97785583 1088.4139595 870.31785583 C1088.4139595 869.65785583 1088.4139595 868.99785583 1088.4139595 868.31785583 C386.5039595 868.31785583 -315.4060405 868.31785583 -1038.5860405 868.31785583 C-1038.9160405 868.97785583 -1039.2460405 869.63785583 -1039.5860405 870.31785583 C-1047.5060405 869.98785583 -1055.4260405 869.65785583 -1063.5860405 869.31785583 C-1064.50031201 821.20008461 -1058.01008453 774.02375392 -1046.5860405 727.31785583 C-1046.34947739 726.34193481 -1046.34947739 726.34193481 -1046.10813522 725.34629822 C-1040.82788205 703.58822803 -1033.95812633 682.44021619 -1026.5860405 661.31785583 C-1025.94795456 659.48263367 -1025.94795456 659.48263367 -1025.296978 657.6103363 C-1008.80452724 610.58690111 -986.25485356 564.93720755 -960.5860405 522.31785583 C-960.07283249 521.4612738 -959.55962448 520.60469177 -959.03086472 519.72215271 C-941.51779067 490.59216718 -922.12315523 462.59403204 -901.39707565 435.67234802 C-899.81289937 433.61279072 -898.23467975 431.5489353 -896.66025925 429.48191833 C-889.2759541 419.79987078 -881.55743833 410.41935682 -873.66563034 401.1493988 C-870.81107824 397.79045976 -868.02687774 394.38580444 -865.2735405 390.94285583 C-860.9885335 385.66959497 -856.39300037 380.72403644 -851.72153854 375.79490662 C-848.85188776 372.7646671 -846.03349322 369.70823177 -843.30161667 366.55271912 C-839.84440082 362.59126189 -836.30512356 358.71796916 -832.70713425 354.88426208 C-832.06618317 354.20126541 -831.42523209 353.51826874 -830.76485825 352.8145752 C-823.90652982 345.5439701 -816.87235889 338.45274132 -809.79478073 331.39622498 C-807.62179715 329.22867941 -805.45431687 327.05573083 -803.28721237 324.88230896 C-801.87802821 323.47378456 -800.46853444 322.06556984 -799.05869675 320.65769958 C-798.42520813 320.02218674 -797.79171951 319.38667389 -797.13903427 318.73190308 C-793.33395943 314.94643734 -789.4087109 311.3556314 -785.34789658 307.84613037 C-783.41402215 306.16864316 -781.54084739 304.43951056 -779.69150925 302.66941833 C-779.05173141 302.06122253 -778.41195358 301.45302673 -777.75278854 300.82640076 C-776.77306076 299.89404602 -776.77306076 299.89404602 -775.7735405 298.94285583 C-770.3970255 293.86050046 -764.9472846 289.03391429 -759.16025925 284.42332458 C-756.37573701 282.14584737 -753.73190246 279.75473576 -751.0860405 277.31785583 C-746.27559777 272.90037886 -741.30633662 268.74845996 -736.22324753 264.65037537 C-734.36215982 263.1356398 -732.51846843 261.60113798 -730.67588425 260.06394958 C-722.56931551 253.31066847 -714.35375149 246.78309721 -705.87119675 240.50926208 C-702.74813592 238.19650893 -699.65881211 235.84430591 -696.58213425 233.47019958 C-686.56339009 225.74445495 -676.42409647 218.32948118 -665.9297905 211.26316833 C-662.1115238 208.69049474 -658.37182337 206.02529901 -654.6485405 203.31785583 C-646.66091834 197.54718715 -638.37852504 192.23107876 -630.08262253 186.91746521 C-627.7873376 185.44683086 -625.49704656 183.96870859 -623.20713425 182.48973083 C-590.65965307 161.5902038 -556.84447684 142.75342097 -522.37772751 125.22996521 C-520.61141667 124.3307743 -518.84700439 123.42785715 -517.08262253 122.52488708 C-476.18346606 101.6166429 -433.86021099 83.69702864 -390.5860405 68.31785583 C-389.72299301 68.01041443 -388.85994553 67.70297302 -387.97074509 67.38621521 C-298.84931988 35.69073957 -206.30850431 14.55810641 -100.9610405 4.06785583 C-100.1401796 3.99072357 -99.3193187 3.91359131 -98.47358322 3.8341217 C-92.18296991 3.25130613 -85.88775193 2.76390363 -79.5860405 2.31785583 C-78.3670607 2.23065277 -77.1480809 2.14344971 -75.89216232 2.05360413 C-50.59814107 0.28273319 -25.34937639 -0.04554232 0 0 Z " fill="#E4A02F" transform="translate(2312.586040496826,1281.682144165039)"/>
<path d="M0 0 C0.84177249 0.14146651 1.68354497 0.28293302 2.55082571 0.42868639 C11.294466 1.80128619 19.69869904 2.28371406 28.55429083 2.25069833 C29.97431982 2.25268627 31.3943478 2.25554993 32.81437349 2.25919722 C36.69856998 2.26666249 40.58266533 2.26179203 44.46685905 2.25481732 C48.71509379 2.24942495 52.9633146 2.25572563 57.21154788 2.26049101 C64.67975647 2.26726685 72.14793586 2.26662209 79.61614508 2.26112393 C90.79632486 2.25293017 101.97648099 2.25629318 113.15666131 2.26188921 C132.21181703 2.27108781 151.26696207 2.27078987 170.32211876 2.26532745 C189.63307537 2.25982542 208.94402496 2.25866389 228.25498199 2.26280212 C230.08436259 2.26318964 230.08436259 2.26318964 231.95070037 2.26358499 C236.9178654 2.26465153 241.88503041 2.26574894 246.85219542 2.26688554 C293.12143664 2.27746553 339.39067256 2.27818833 385.65991402 2.27259064 C387.04493704 2.27242336 388.42996006 2.2722561 389.81498308 2.27208885 C390.50140551 2.27200593 391.18782794 2.27192302 391.89505105 2.2718376 C400.94720692 2.27074456 409.9993628 2.26967134 419.05151868 2.26865101 C419.74345941 2.26857269 420.43540014 2.26849436 421.14830877 2.26841367 C453.21289864 2.26481125 485.27748788 2.26566813 517.34207783 2.26751192 C520.84003381 2.26771152 524.33798979 2.26790251 527.83594578 2.26809447 C538.37918465 2.26867565 548.92242352 2.26926953 559.46566239 2.26988967 C591.61638761 2.27177873 623.76711283 2.27297921 655.9178381 2.27358627 C656.63369926 2.27360001 657.34956043 2.27361375 658.08711436 2.2736279 C704.44817289 2.27450539 750.80923072 2.27230382 797.17028904 2.26788712 C798.28046778 2.26778176 798.28046778 2.26778176 799.41307437 2.26767428 C824.20349565 2.26532157 848.99391691 2.26280944 873.78433818 2.26028102 C948.75295219 2.25264001 1023.7215637 2.24845305 1157.60749538 2.26051168 C1182.39288175 2.26303809 1207.17826813 2.26553512 1231.96365452 2.26788712 C1233.07357341 2.26799285 1233.07357341 2.26799285 1234.2059149 2.26810072 C1280.54359504 2.27251121 1326.88127469 2.27447547 1373.21895504 2.27358627 C1373.93457193 2.27357276 1374.65018883 2.27355925 1375.38749108 2.27354533 C1407.51973504 2.27293189 1439.65197894 2.27165529 1471.78422285 2.26976527 C1482.3225163 2.26914617 1492.86080976 2.2685575 1503.39910321 2.26797917 C1506.89494424 2.26778719 1510.39078527 2.26759248 1513.8866263 2.26739145 C1545.95202013 2.26555319 1578.01741311 2.26502167 1610.08280683 2.26865101 C1611.12011863 2.26876792 1611.12011863 2.26876792 1612.17838622 2.2688872 C1621.2259446 2.26991079 1630.27350297 2.27099607 1639.32106134 2.27208885 C1640.34994487 2.27221309 1640.34994487 2.27221309 1641.39961391 2.27233984 C1642.78346303 2.27250696 1644.16731215 2.27267422 1645.55116127 2.27284163 C1692.37524925 2.27849134 1739.19933143 2.27674477 1786.02341909 2.26602915 C1790.97441908 2.26492441 1795.92541907 2.26385101 1800.87641907 2.26280212 C1802.09150115 2.26254171 1803.30658323 2.2622813 1804.55848598 2.26201299 C1823.82022666 2.25806389 1843.08196033 2.26081929 1862.34370038 2.26634014 C1881.27068643 2.27162288 1900.19766059 2.26978788 1919.12464512 2.26031196 C1930.22895088 2.25496495 1941.33322414 2.25510307 1952.43752836 2.26327515 C1959.80725983 2.26815382 1967.17696592 2.26581296 1974.54669431 2.25754145 C1978.72755796 2.25305215 1982.90835676 2.25167379 1987.08921756 2.25917448 C1990.88681679 2.26592884 1994.68429516 2.26339159 1998.4818868 2.25362507 C2000.47615435 2.25083128 2002.47042845 2.25776645 2004.46468415 2.26518767 C2012.47915105 2.23253562 2020.11705236 1.44632468 2028 0 C2028 0.33 2028 0.66 2028 1 C2029.09088676 1.00879936 2029.09088676 1.00879936 2030.20381165 1.01777649 C2037.10245242 1.07600209 2044.00082405 1.14824618 2050.8991518 1.23571491 C2054.44454428 1.28018899 2057.9898279 1.31949335 2061.53540039 1.34643555 C2065.62414451 1.37774286 2069.71229692 1.43251974 2073.80078125 1.48828125 C2075.05643387 1.49467117 2076.31208649 1.5010611 2077.60578918 1.50764465 C2091.77276085 1.74125008 2102.32319456 4.88487686 2112.3125 15.1875 C2121.28251781 24.72166988 2120.57710239 37.47935696 2120.51757812 49.64477539 C2120.52300715 51.51552371 2120.53013417 53.38626775 2120.53881836 55.25700378 C2120.55698066 60.31589561 2120.55000848 65.3744593 2120.53730202 70.43335652 C2120.52711498 75.75965152 2120.53658552 81.08591998 2120.54284668 86.41221619 C2120.55011604 95.370646 2120.54056396 104.32894379 2120.52148438 113.28735352 C2120.49981685 123.578305 2120.50669592 133.86893817 2120.52879 144.15988165 C2120.54708428 153.04284153 2120.54943159 161.92570683 2120.53903532 170.80867952 C2120.53286383 176.09224823 2120.53178434 181.37566875 2120.54518127 186.65922737 C2120.67485337 246.03157368 2107.95553794 298.98005577 2067.0234375 343.75390625 C2065.42588072 345.52725596 2063.91616508 347.31683982 2062.4375 349.1875 C2059.25549565 352.85904348 2055.70153414 355.86515024 2052 359 C2051.08476562 359.8146875 2050.16953125 360.629375 2049.2265625 361.46875 C2014.78371481 391.89419284 1968.40785262 410.43451755 1922.32984191 410.251849 C1920.38298428 410.25624229 1920.38298428 410.25624229 1918.3967962 410.26072434 C1914.82045423 410.2685122 1911.24422118 410.2640231 1907.66788089 410.25738853 C1903.75266979 410.25236835 1899.83747471 410.25905672 1895.92226616 410.26419219 C1889.04272636 410.27161845 1882.16321754 410.27164515 1875.28367589 410.26680271 C1864.98466778 410.25958917 1854.68568632 410.26393129 1844.38667892 410.27048406 C1826.83226577 410.28131226 1809.27786335 410.28264195 1791.7234478 410.27878571 C1773.93515879 410.2749093 1756.14687777 410.27536472 1738.35858917 410.2810955 C1737.23482755 410.28145433 1736.11106593 410.28181316 1734.95325092 410.28218286 C1730.37629308 410.28365777 1725.79933525 410.28516217 1721.22237743 410.28670432 C1674.76106761 410.30234036 1628.29976329 410.30501816 1581.83845131 410.30254826 C1575.41848313 410.30220981 1568.99851495 410.30188772 1562.57854676 410.30158257 C1561.30338923 410.30152153 1560.02823169 410.30146049 1558.71443301 410.30139759 C1530.45704828 410.30012578 1502.1996643 410.30272693 1473.94227979 410.30610864 C1467.49041113 410.30687938 1461.03854246 410.30762411 1454.58667379 410.30837366 C1451.9972837 410.30867535 1449.40789361 410.30897723 1446.81850351 410.3092793 C1445.53499067 410.30942898 1444.25147782 410.30957866 1442.92907064 410.30973287 C1440.33288632 410.3100364 1437.73670199 410.31034109 1435.14051767 410.31064692 C1362.15903387 410.31923949 1289.177551 410.32404445 1216.19606683 410.31981884 C1214.12929289 410.31969925 1212.06251895 410.31958087 1209.99574501 410.31946275 C1194.78262867 410.31859134 1179.56951233 410.31766074 1164.356396 410.31671212 C1162.96899486 410.31662573 1161.58159373 410.31653936 1160.1941926 410.316453 C1158.80622541 410.31636656 1157.41825822 410.31628012 1156.03029103 410.31619367 C1155.34304662 410.31615088 1154.6558022 410.31610809 1153.9477322 410.316064 C1150.47523005 410.31584761 1147.00272789 410.31563017 1143.53022574 410.31541077 C1077.94377384 410.31127221 1012.35732515 410.31019461 946.77087402 410.3225708 C946.08037134 410.32270108 945.38986865 410.32283137 944.67844164 410.3229656 C923.79797175 410.32691752 902.91750194 410.33127708 882.03703215 410.33573675 C859.20463153 410.34061289 836.3722309 410.34544685 813.53983021 410.3500185 C812.51733581 410.35022366 812.51733581 410.35022366 811.47418497 410.35043296 C768.77679217 410.35898883 726.0794003 410.36388408 683.38200665 410.36472607 C681.4037765 410.36476562 681.4037765 410.36476562 679.38558211 410.36480596 C650.43501988 410.36534674 621.48445771 410.36497432 592.5338955 410.36376625 C582.17502963 410.36334062 571.81616376 410.3629755 561.45729788 410.36263681 C558.88026487 410.36255151 556.30323186 410.36246257 553.72619884 410.36236999 C512.65857577 410.36092105 471.59095984 410.36804853 430.52333848 410.37937395 C388.01357635 410.39102117 345.50382697 410.39159075 302.99406479 410.37953053 C298.42884858 410.37827869 293.86363237 410.37707521 289.29841614 410.37590981 C288.17803348 410.37561951 287.05765081 410.37532922 285.90331716 410.37503013 C268.16528216 410.37070526 250.42726528 410.37643464 232.68923312 410.38635 C215.24604664 410.39588879 197.80288812 410.39470999 180.35970327 410.38214377 C170.13482006 410.37509651 159.91001724 410.3762156 149.68513978 410.38949216 C142.88886025 410.39749379 136.0926414 410.39455658 129.29636742 410.38284252 C125.44735882 410.37651063 121.59850867 410.37469626 117.74950907 410.38640973 C101.91294982 410.43141114 86.57813814 410.06321506 71 407 C69.95558079 406.79659465 68.91116158 406.59318931 67.83509331 406.38362016 C65.5770273 405.9214878 63.35496724 405.39425285 61.125 404.8125 C60.31442139 404.60238281 59.50384277 404.39226563 58.66870117 404.17578125 C26.64701891 395.56079536 -1.22671144 379.83694509 -26 358 C-27.26457031 356.91912109 -27.26457031 356.91912109 -28.5546875 355.81640625 C-33.5068743 351.53951765 -37.79976083 347.00634568 -42 342 C-43.25103516 340.58074219 -43.25103516 340.58074219 -44.52734375 339.1328125 C-73.39210066 306.21055418 -93.15845409 260.7599054 -93.14717102 216.6267395 C-93.15084771 215.83460174 -93.1545244 215.04246399 -93.1583125 214.22632205 C-93.16923611 211.59895396 -93.17317361 208.97162556 -93.17700195 206.34423828 C-93.1832749 204.44945148 -93.18992243 202.55466588 -93.19691467 200.65988159 C-93.21784901 194.4633671 -93.22830335 188.26685265 -93.23828125 182.0703125 C-93.24233202 179.93058128 -93.24644904 177.79085019 -93.25063133 175.65111923 C-93.26965533 165.60085289 -93.28389525 155.55059379 -93.2922433 145.50031292 C-93.30202196 133.92148328 -93.32836972 122.34284448 -93.36874419 110.76408207 C-93.39893551 101.79649768 -93.41371482 92.82896795 -93.41702431 83.86133373 C-93.41937019 78.51278681 -93.42827159 73.16444445 -93.45348549 67.8159523 C-93.47682576 62.78434348 -93.4809755 57.75307311 -93.47072411 52.7214241 C-93.47023018 50.88125988 -93.47650808 49.04107863 -93.49028015 47.20096588 C-93.58810835 33.34867854 -92.59390608 22.64683102 -82.4921875 12.23046875 C-71.74109777 2.60841196 -60.68981565 1.71072377 -46.77734375 1.5859375 C-45.4225603 1.56719032 -44.06778809 1.54761437 -42.71302795 1.5272522 C-39.1769987 1.47629924 -35.64093173 1.43647859 -32.10473633 1.39910889 C-28.48444578 1.35883586 -24.86430704 1.30785083 -21.24414062 1.2578125 C-14.16287204 1.1614906 -7.0815078 1.07694843 0 1 C0 0.67 0 0.34 0 0 Z " fill="#E4A02F" transform="translate(1324,2983)"/>
<path d="M0 0 C1.33607066 0.40749828 2.67324919 0.81138912 4.01171875 1.2109375 C5.22472656 1.59507812 6.43773438 1.97921875 7.6875 2.375 C8.88761719 2.75398438 10.08773437 3.13296875 11.32421875 3.5234375 C12.03215576 3.74789551 12.74009277 3.97235352 13.46948242 4.20361328 C15.33513004 4.7907568 17.20278981 5.37151587 19.0715332 5.94873047 C33.03397423 10.27232992 46.92287572 14.82400901 60.8125 19.375 C61.48518417 19.59540703 62.15786835 19.81581406 62.85093689 20.04290009 C87.33812968 28.06966049 111.74648233 36.28885186 136 45 C136.93642334 45.33606262 137.87284668 45.67212524 138.83764648 46.01837158 C183.6913793 62.134457 228.15786761 79.29866899 272 98 C272.74815979 98.31864014 273.49631958 98.63728027 274.26715088 98.96557617 C327.25004898 121.53813873 380.28845594 145.14867308 430.94775391 172.59716797 C434.10550648 174.30439036 437.27112302 175.99633889 440.4375 177.6875 C441.42830566 178.22987305 442.41911133 178.77224609 443.43994141 179.33105469 C444.36597168 179.82379883 445.29200195 180.31654297 446.24609375 180.82421875 C447.06779053 181.26854248 447.8894873 181.71286621 448.73608398 182.1706543 C451.36244855 183.13277663 452.44356617 183.0679504 455 182 C457.32139131 179.82004641 457.32139131 179.82004641 459.6875 177 C465.17214702 170.78509164 470.98538897 164.94826484 476.8972168 159.140625 C480.1969998 155.87982645 483.39914268 152.59880162 486.421875 149.078125 C491.28534053 143.428533 496.66332663 138.29186021 501.97265625 133.06640625 C505.59298987 129.48093941 509.15107054 125.90058108 512.46875 122.03125 C517.50609239 116.1631264 523.11172504 110.84516638 528.6171875 105.421875 C532.99285484 101.08610736 537.19046406 96.69875327 541.19921875 92.0234375 C545.54417549 87.14125184 550.31670377 82.64880498 554.97265625 78.06640625 C558.59298987 74.48093941 562.15107054 70.90058108 565.46875 67.03125 C570.50609239 61.1631264 576.11172504 55.84516638 581.6171875 50.421875 C585.99285484 46.08610736 590.19046406 41.69875327 594.19921875 37.0234375 C598.54417549 32.14125184 603.31670377 27.64880498 607.97265625 23.06640625 C611.59298987 19.48093941 615.15107054 15.90058108 618.46875 12.03125 C619.25819659 11.13348959 619.25819659 11.13348959 620.0635916 10.2175926 C621.42721334 8.65596052 622.76054509 7.06761919 624.07098615 5.46110022 C628.35354016 0.61162943 631.5298702 -2.57706209 638.13433266 -3.23047829 C640.46360133 -3.27212057 642.79425311 -3.25942664 645.12319946 -3.20254517 C646.41397915 -3.21108941 647.70475884 -3.21963366 649.03465307 -3.22843683 C652.59329734 -3.25066434 656.14889829 -3.21100003 659.70715499 -3.16065621 C663.55295321 -3.11728216 667.3985937 -3.1320984 671.24456787 -3.13967896 C677.89972915 -3.14491081 684.55390654 -3.11366187 691.20882034 -3.05730057 C700.83041 -2.97586736 710.45152617 -2.94996987 720.07342307 -2.93742065 C735.68577409 -2.9155595 751.29760123 -2.84907936 766.90966797 -2.75439453 C782.07109973 -2.66253862 797.23238896 -2.59178686 812.39404297 -2.54931641 C813.79697703 -2.54537555 813.79697703 -2.54537555 815.2282532 -2.54135509 C819.92054434 -2.52830427 824.61283648 -2.5156673 829.30512929 -2.50323606 C868.20378623 -2.39964726 907.10185847 -2.22358506 946 -2 C945.34 -1.67 944.68 -1.34 944 -1 C944 -0.34 944 0.32 944 1 C945.01449219 1.10183594 946.02898438 1.20367188 947.07421875 1.30859375 C957.71072947 3.18188967 967.11602427 9.91296044 975 17 C975.61101563 17.51820313 976.22203125 18.03640625 976.8515625 18.5703125 C988.99889663 29.60830105 997.35418991 47.45968608 998.19210434 63.7302742 C998.30032086 68.40851384 998.29363986 73.08688094 998.29052734 77.76611328 C998.29651876 79.56574277 998.30332571 81.36536969 998.31088257 83.16499329 C998.32849019 88.03516074 998.33323582 92.90525783 998.33451414 97.77545404 C998.3359396 100.82480626 998.34021673 103.87414081 998.34550858 106.92348862 C998.36399358 117.58083982 998.37218136 128.23814111 998.37060547 138.89550781 C998.36940543 148.79808142 998.39048474 158.7004366 998.4220928 168.60295498 C998.44833088 177.12984995 998.45896957 185.65667392 998.45769465 194.18360889 C998.4571871 199.26511442 998.4627545 204.3464258 998.48405075 209.42789078 C998.50355976 214.21330081 998.50347191 218.99833405 998.48901749 223.78375816 C998.48694369 225.52870809 998.49154376 227.27368238 998.5037384 229.01859093 C998.63717351 249.45402273 993.75105853 267.85251446 979.1328125 282.8671875 C978.42898437 283.57101562 977.72515625 284.27484375 977 285 C976.46117188 285.62132813 975.92234375 286.24265625 975.3671875 286.8828125 C964.37226346 299.20375753 946.43010628 305.06022464 930.41059844 306.27137589 C926.7135129 306.38069063 923.02819392 306.39759456 919.32956535 306.37719816 C917.90912186 306.38030708 916.48868077 306.38472873 915.0682449 306.39032295 C911.18752037 306.40185062 907.30702213 306.39491571 903.42630196 306.38479719 C899.18012756 306.37708395 894.93398584 306.38691813 890.68781605 306.3944377 C883.22476453 306.40525454 875.76177775 306.40495491 868.2987232 306.39736467 C857.12618136 306.38605615 845.95369412 306.39207656 834.78115286 306.40142866 C815.73839015 306.4168581 796.69565028 306.4180365 777.65288353 306.41144943 C758.35523815 306.40482226 739.05760911 306.40469599 719.75996399 306.41249657 C717.9315954 306.41322856 717.9315954 306.41322856 716.06629007 306.41397535 C711.10183071 306.41598353 706.13737138 306.41803664 701.17291207 306.42014709 C654.93137647 306.43978423 608.68985087 306.44448692 562.44831276 306.43945122 C561.76345982 306.43937676 561.07860689 306.43930231 560.37300083 306.4392256 C557.60035458 306.43892376 554.82770832 306.43862107 552.05506207 306.43831767 C544.39591083 306.4374808 536.73675959 306.43667488 529.07760835 306.43590808 C528.04032727 306.43580326 528.04032727 306.43580326 526.98209101 306.43569633 C494.93299007 306.43248999 462.88389081 306.43563473 430.83479014 306.44009587 C427.33820454 306.44057971 423.84161894 306.44104972 420.34503334 306.44152 C414.73279806 306.44227595 409.12056279 306.44303419 403.50832751 306.44379692 C402.46441347 306.44393875 402.46441347 306.44393875 401.39941027 306.44408344 C397.88011044 306.44456215 394.36081061 306.4450436 390.84151079 306.44552955 C357.99787245 306.45006389 325.15423407 306.45356232 292.31059551 306.45603275 C291.23719548 306.45611391 291.23719548 306.45611391 290.1421106 306.45619671 C243.79816146 306.4596791 197.45421378 306.45832328 151.11026478 306.45364285 C149.61542277 306.45349296 148.12058075 306.45334315 146.62573874 306.45319343 C130.12317237 306.45153687 113.620606 306.44978521 97.11803965 306.44800042 C96.00069521 306.44787967 96.00069521 306.44787967 94.86077816 306.44775648 C92.60257923 306.44751242 90.34438031 306.44726823 88.08618138 306.44702397 C87.34068317 306.44694334 86.59518495 306.44686271 85.82709588 306.44677963 C82.06025038 306.44637194 78.29340487 306.44596285 74.52655936 306.44555128 C-0.40228989 306.43737265 -75.33113094 306.43549973 -209.13595062 306.46599259 C-233.90414938 306.47213193 -258.67234814 306.47821441 -283.44054699 306.48396206 C-284.17999791 306.48413407 -284.91944883 306.48430609 -285.68130735 306.48448332 C-331.99641496 306.49524447 -378.31152096 306.50112906 -424.62662983 306.5015192 C-425.3420257 306.50152572 -426.05742156 306.50153223 -426.79449609 306.50153895 C-458.91869667 306.50182046 -491.04289712 306.50082923 -523.16709762 306.49864888 C-534.40299852 306.49788941 -545.63889943 306.49721543 -556.87480034 306.49656873 C-559.67003147 306.4964075 -562.4652626 306.49623939 -565.26049373 306.49606572 C-597.30899105 306.49409156 -629.35748464 306.49490181 -661.40598083 306.50437045 C-662.0968674 306.50457407 -662.78775398 306.50477768 -663.49957651 306.50498747 C-674.61289505 306.50827491 -685.72621353 306.51176912 -696.83953201 306.5152687 C-743.64250204 306.52998478 -790.44545151 306.53014216 -837.24842265 306.5125451 C-842.19993464 306.5107409 -847.15144665 306.50900072 -852.10295868 306.50731087 C-853.92574505 306.50668012 -853.92574505 306.50668012 -855.7853554 306.50603662 C-875.02917859 306.49973812 -894.27297249 306.50684402 -913.51679155 306.51952007 C-932.43792648 306.53170069 -951.35901518 306.52960159 -970.2801466 306.51229975 C-981.37328767 306.5025809 -992.46629744 306.50376514 -1003.55942992 306.52112973 C-1010.93067537 306.53157235 -1018.3018209 306.52745916 -1025.67305646 306.51161324 C-1029.84910309 306.50303961 -1034.02489015 306.50052767 -1038.20092284 306.51599697 C-1064.61486069 306.60693758 -1089.8109806 306.65948258 -1109.8671875 287.1328125 C-1110.57101562 286.42898438 -1111.27484375 285.72515625 -1112 285 C-1112.93199219 284.19175781 -1112.93199219 284.19175781 -1113.8828125 283.3671875 C-1124.14828643 274.20651794 -1131.05359114 258.42439903 -1133 245 C-1133.30144775 239.06748695 -1133.2841391 233.14107329 -1133.2746582 227.20214844 C-1133.27901048 225.3992746 -1133.28419534 223.5964026 -1133.29014587 221.79353333 C-1133.30349363 216.91522883 -1133.30411911 212.03700201 -1133.30158257 207.15868282 C-1133.30050971 203.076056 -1133.30540445 198.99344469 -1133.310188 194.9108212 C-1133.3212692 185.27207854 -1133.3217288 175.63337485 -1133.31567383 165.99462891 C-1133.30963854 156.07614626 -1133.32193697 146.15780564 -1133.3432439 136.23934722 C-1133.36090384 127.70229371 -1133.36685423 119.16528521 -1133.36360615 110.62821412 C-1133.3617997 105.53898648 -1133.36436528 100.44986009 -1133.37832069 95.36064911 C-1133.3909656 90.57036721 -1133.38889236 85.78030529 -1133.37590981 80.99002647 C-1133.37355868 79.24101624 -1133.37622561 77.49199021 -1133.38453293 75.74299812 C-1133.44179386 62.74058554 -1132.51951974 50.53960266 -1126.3125 38.8125 C-1125.79248413 37.80425171 -1125.79248413 37.80425171 -1125.26196289 36.77563477 C-1122.15905726 30.94569997 -1118.45376759 25.88183932 -1114 21 C-1113.48308594 20.3915625 -1112.96617188 19.783125 -1112.43359375 19.15625 C-1105.10443379 11.07396834 -1093.5818537 3.83371738 -1083 1 C-1081.68 1 -1080.36 1 -1079 1 C-1079 0.34 -1079 -0.32 -1079 -1 C-1079.66 -1.33 -1080.32 -1.66 -1081 -2 C-910.06818119 -2.24631342 -910.06818119 -2.24631342 -775.4342804 -2.41304016 C-773.91215864 -2.41488249 -772.39003688 -2.41672482 -770.86791512 -2.41856716 C-738.91832974 -2.45722464 -706.96874366 -2.49526215 -675.0191567 -2.53258345 C-658.96987225 -2.55133177 -642.92058793 -2.57019923 -626.87130375 -2.58917934 C-624.45032656 -2.59204173 -622.02934937 -2.59490071 -619.60837218 -2.59775956 C-582.32779621 -2.64181286 -545.04722559 -2.68842155 -507.7666626 -2.74243164 C-506.96506926 -2.7435929 -506.16347593 -2.74475415 -505.33759189 -2.7459506 C-492.41349635 -2.76468907 -479.48940113 -2.78364196 -466.56530595 -2.80262331 C-429.34088183 -2.85729077 -392.1164585 -2.91037327 -354.89201832 -2.95296192 C-353.74382814 -2.95427673 -353.74382814 -2.95427673 -352.57244219 -2.9556181 C-335.76890044 -2.97483159 -318.9653579 -2.99322961 -302.16181441 -3.01085547 C-295.40067517 -3.01796185 -288.63953606 -3.02518562 -281.87839699 -3.03244972 C-280.76842989 -3.03363801 -280.76842989 -3.03363801 -279.63603922 -3.03485031 C-255.79226043 -3.06043499 -231.94850747 -3.09557655 -208.10474912 -3.1357292 C-184.08673412 -3.17613156 -160.06872677 -3.20716443 -136.05068397 -3.22517026 C-121.14559469 -3.23635486 -106.24057556 -3.25566379 -91.33551788 -3.28855455 C-81.83141933 -3.30870371 -72.32735082 -3.31797236 -62.82323101 -3.31831499 C-57.40389668 -3.31882418 -51.98468283 -3.32413886 -46.56537767 -3.34269472 C-41.63509306 -3.35948314 -36.70500201 -3.36240674 -31.77469729 -3.35428053 C-30.00229942 -3.35378723 -28.22989109 -3.35834 -26.45752265 -3.36856748 C-17.2266721 -3.41900319 -8.8119987 -3.10474678 0 0 Z " fill="#844B29" transform="translate(2405,2680)"/>
<path d="M0 0 C2.54477627 -0.37459537 2.54477627 -0.37459537 5.84480039 -0.37401349 C7.10144076 -0.38107218 8.35808113 -0.38813087 9.6528015 -0.39540346 C11.06413013 -0.38806147 12.47545737 -0.38044862 13.88678324 -0.37259549 C15.38133458 -0.37518972 16.87588412 -0.3791003 18.37042896 -0.38421445 C22.51794115 -0.39452668 26.66523988 -0.38592923 30.8127414 -0.37451235 C35.32636042 -0.365373 39.83995219 -0.37358218 44.35357177 -0.37963298 C52.30829666 -0.38786705 60.26295727 -0.3848295 68.21767898 -0.37464955 C80.12617339 -0.35946924 92.03462153 -0.3615202 103.9431221 -0.36704927 C124.23406183 -0.37596565 144.52497573 -0.37060604 164.81591225 -0.35761642 C185.39130639 -0.34450256 205.96668719 -0.33789629 226.54208565 -0.33932304 C227.8394872 -0.33940912 229.13688875 -0.3394952 230.4736055 -0.33958388 C237.08853849 -0.34005298 243.70347147 -0.34062883 250.31840445 -0.34124239 C263.8832093 -0.3424662 277.44801416 -0.34263551 291.01281905 -0.34239829 C291.69551787 -0.34238704 292.37821669 -0.3423758 293.08160336 -0.34236422 C326.76213415 -0.3417212 360.44265996 -0.32981285 394.12318802 -0.31719017 C405.98411445 -0.31275273 417.8450409 -0.30836873 429.70596743 -0.30418181 C430.44325418 -0.30392151 431.18054094 -0.30366121 431.94016971 -0.30339302 C466.07694906 -0.29140646 500.21372804 -0.28710713 534.35050925 -0.28478391 C536.58238276 -0.28463163 538.81425628 -0.28447572 541.0461298 -0.28431889 C554.50413467 -0.28337662 567.96213956 -0.28251451 581.42014445 -0.28174497 C614.87852765 -0.2798283 648.33691074 -0.27694984 681.79529381 -0.27341938 C682.93790968 -0.27329953 682.93790968 -0.27329953 684.1036087 -0.27317726 C733.45019033 -0.26799349 782.79677028 -0.25884969 832.1433506 -0.24639416 C832.9313586 -0.24619529 833.7193666 -0.24599642 834.53125363 -0.24579153 C858.51941429 -0.23972932 882.50757487 -0.23337422 906.49573544 -0.22696183 C933.04173294 -0.21986698 959.58773045 -0.21282209 986.13372803 -0.20599365 C987.33108169 -0.2056854 987.33108169 -0.2056854 988.55262431 -0.20537093 C1064.35154355 -0.18587368 1140.15046332 -0.174439 1215.94938441 -0.1650923 C1219.1595297 -0.16469587 1222.369675 -0.1642971 1225.5798203 -0.16389824 C1255.12002744 -0.16022807 1284.66023459 -0.15665257 1314.20044176 -0.15319599 C1315.3786817 -0.15305811 1315.3786817 -0.15305811 1316.58072446 -0.15291744 C1318.95898678 -0.15263915 1321.33724909 -0.1523609 1323.71551141 -0.15208265 C1387.9673027 -0.14456489 1452.21909387 -0.13622128 1516.47088498 -0.12734274 C1518.73793828 -0.12702968 1521.00499157 -0.12671726 1523.27204486 -0.12640502 C1596.90984408 -0.11626045 1670.54764285 -0.10462816 1931.77978516 -0.04760742 C1933.05509637 -0.04730762 1934.33040759 -0.04700781 1935.6443646 -0.04669892 C1999.42957654 -0.03169686 2063.21478835 -0.01617462 2127 0 C2128.92001431 3.6723785 2130.83877594 7.34541012 2132.75732422 11.01855469 C2133.29713425 12.05100311 2133.83694427 13.08345154 2134.39311218 14.14718628 C2138.39234108 21.80601327 2142.29880534 29.50313674 2146.125 37.25 C2149.85141627 44.7934996 2153.66036481 52.27845678 2157.59960938 59.71240234 C2162.85839343 69.6741671 2167.96288428 79.70980972 2173.0234375 89.7734375 C2173.47264179 90.66652241 2173.92184608 91.55960732 2174.38466263 92.4797554 C2176.75192482 97.18789767 2179.11643228 101.89741258 2181.47900391 106.60791016 C2183.41485896 110.46620182 2185.3565251 114.32148425 2187.30322266 118.17431641 C2189.6838883 122.88610778 2192.05452816 127.60281717 2194.41823196 132.32313919 C2195.31020376 134.10042674 2196.20554101 135.87602991 2197.10450363 137.64979172 C2206.37108126 155.94744877 2213.98906829 174.33084458 2208.01953125 195.1015625 C2201.97099785 212.29700994 2188.60410796 222.78649947 2172.6640625 230.64453125 C2152.22647775 239.88119713 2131.29227855 243.53623189 2109.00512695 243.33618164 C2106.17305363 243.31237858 2103.34191531 243.31567639 2100.50976562 243.32226562 C2091.17336185 243.30842976 2082.14258045 243.11471545 2073 241 C2072.23840576 240.82847412 2071.47681152 240.65694824 2070.69213867 240.48022461 C2053.27679104 236.26362875 2040.48972156 227.12829432 2027.39453125 215.1796875 C2025.32784227 213.29842739 2023.23805393 211.4536885 2021.125 209.625 C2018.30748727 207.18503398 2015.58543511 204.663636 2012.87963867 202.10058594 C1988.90469638 179.58444672 1957.71001348 165.12755281 1924.45019531 165.59765625 C1877.06848285 167.2360023 1833.5785092 192.62482795 1801.0625 226 C1796.37139826 230.7472826 1791.22124881 234.85391182 1786 239 C1784.91507434 239.87594272 1783.83044771 240.75225591 1782.74609375 241.62890625 C1768.02052379 253.4577123 1752.35758347 263.57675419 1736 273 C1734.93942383 273.61488281 1734.93942383 273.61488281 1733.85742188 274.2421875 C1721.1491593 281.53200896 1707.68133983 286.8268485 1694 292 C1693.28102539 292.27859863 1692.56205078 292.55719727 1691.82128906 292.84423828 C1647.31537376 309.97704639 1595.15551936 307.88138724 1551.8125 288.8125 C1530.97004975 279.24588171 1512.13625707 266.14257165 1495 251 C1493.90667358 250.04456299 1493.90667358 250.04456299 1492.79125977 249.06982422 C1487.10835198 244.04304884 1481.7436266 238.76240835 1476.45043945 233.33398438 C1466.29859245 222.92336847 1456.09947644 213.16439819 1444 205 C1443.14970215 204.42258057 1443.14970215 204.42258057 1442.28222656 203.83349609 C1402.60081474 177.29699245 1354.60090911 168.15150735 1307.87353516 177.421875 C1303.50960545 178.38249545 1299.25670197 179.65441954 1295 181 C1294.21979492 181.23702637 1293.43958984 181.47405273 1292.63574219 181.71826172 C1253.13625905 193.76779765 1226.02748516 214.49524145 1201.734375 247.3203125 C1198.28027917 251.98500022 1194.69409496 256.52314143 1191 261 C1190.5781543 261.52271484 1190.15630859 262.04542969 1189.72167969 262.58398438 C1166.81144224 290.90291071 1132.17503541 312.16266474 1096 318 C1094.7625 318.20367188 1093.525 318.40734375 1092.25 318.6171875 C1076.17870029 320.94497496 1060.81372985 320.72659617 1045 317 C1043.80375 316.74476563 1042.6075 316.48953125 1041.375 316.2265625 C1009.49491374 308.73749051 981.02391471 288.28474874 956 268 C954.69294111 266.95023093 953.38563993 265.9007635 952.078125 264.8515625 C943.83285017 258.21410635 935.73620076 251.42138904 927.73095703 244.49707031 C918.91923957 236.87599112 910.08491749 229.29565496 901 222 C900.49065918 221.58959473 899.98131836 221.17918945 899.45654297 220.75634766 C879.13862423 204.42714748 857.84958968 188.77018651 834 178 C833.39269043 177.72462402 832.78538086 177.44924805 832.15966797 177.16552734 C824.64719223 173.82149803 817.05424368 171.30903936 809.125 169.1875 C808.35244873 168.98036377 807.57989746 168.77322754 806.78393555 168.55981445 C788.48167188 163.90130628 768.27296486 164.64750734 750 169 C748.82695313 169.2784375 747.65390625 169.556875 746.4453125 169.84375 C706.51051889 180.34814016 676.38066873 207.1915465 648.13354492 235.96240234 C641.49124269 242.71914934 634.86450579 249.21572926 627.41674805 255.09179688 C624.84462118 257.12268319 622.3604909 259.23935971 619.875 261.375 C612.68351306 267.2468542 604.89591843 272.14290628 597 277 C596.35434082 277.40250977 595.70868164 277.80501953 595.04345703 278.21972656 C575.00424409 290.59551221 552.14469903 298.18902546 529 302 C527.55681396 302.25595947 527.55681396 302.25595947 526.08447266 302.51708984 C488.43734918 308.86837166 449.4888132 300.23651983 415 285 C414.1764502 284.64099609 413.35290039 284.28199219 412.50439453 283.91210938 C386.19899784 272.32454408 361.87008413 256.61485485 340 238 C338.8701047 237.05561493 337.73987617 236.11162845 336.609375 235.16796875 C331.0047962 230.45829 325.59904358 225.69401405 320.5 220.4375 C314.47215824 214.29492626 307.8737513 209.14581934 301 204 C300.45537109 203.58395508 299.91074219 203.16791016 299.34960938 202.73925781 C283.6824804 190.79472962 266.59679376 181.48025807 248.08740234 174.76367188 C246.3547656 174.12979027 244.63787151 173.45307166 242.92578125 172.765625 C214.16609746 161.84954064 180.50915742 163.6293953 152.62402344 176.05908203 C135.14945438 184.25890511 120.84930654 195.72885975 107 209 C91.23512 224.08939074 75.40284907 235.54546074 54 241 C53.27039062 241.18908936 52.54078125 241.37817871 51.7890625 241.57299805 C41.97375948 243.73317878 31.87360115 243.44074199 21.875 243.4375 C20.40451706 243.43860275 20.40451706 243.43860275 18.90432739 243.43972778 C-10.8034152 243.38116973 -41.79970316 238.05168513 -65 218 C-65.763125 217.35546875 -66.52625 216.7109375 -67.3125 216.046875 C-76.77328851 207.4171017 -82.16062078 195.806081 -83.24609375 183.125 C-83.77004855 170.16902688 -80.21901772 159.00589484 -74.6171875 147.5390625 C-74.15083389 146.57446106 -73.68448029 145.60985962 -73.20399475 144.61602783 C-65.21807402 128.18017954 -57.00153733 111.85587399 -48.8215332 95.51611328 C-46.97524333 91.82613899 -45.1319253 88.13468365 -43.28858852 84.44323349 C-41.48050833 80.82341737 -39.67048244 77.20457674 -37.85991096 73.58600616 C-37.01071999 71.88827892 -36.16209523 70.19026831 -35.31411552 68.49193573 C-30.46184237 58.77677698 -25.52649522 49.11318561 -20.43711758 39.51977158 C-16.49154748 32.07887047 -12.73393015 24.54873964 -9 17 C-7.7106864 14.39465787 -6.41861147 11.79071025 -5.125 9.1875 C-4.57070312 8.06730469 -4.01640625 6.94710937 -3.4453125 5.79296875 C-2 3 -2 3 0 0 Z " fill="#4F713E" transform="translate(1274,2150)"/>
<path d="M0 0 C523.05 0 1046.1 0 1585 0 C1585 2 1585 2 1582.85693359 4.27026367 C1581.44275146 5.62148315 1581.44275146 5.62148315 1580 7 C1579.0920166 7.90274658 1578.1840332 8.80549316 1577.24853516 9.7355957 C1576.77098785 10.20991531 1576.29344055 10.68423492 1575.80142212 11.17292786 C1573.64109936 13.31967149 1571.48360912 15.46925345 1569.32617188 17.61889648 C1568.1965408 18.74350194 1567.0660134 19.86720782 1565.93457031 20.98999023 C1560.35251314 26.53059649 1554.84602981 32.05174395 1549.73974609 38.03979492 C1545.22092727 43.13123421 1540.23028742 47.80300045 1535.3828125 52.578125 C1531.00714516 56.91389264 1526.80953594 61.30124673 1522.80078125 65.9765625 C1518.45582451 70.85874816 1513.68329623 75.35119502 1509.02734375 79.93359375 C1505.40701013 83.51906059 1501.84892946 87.09941892 1498.53125 90.96875 C1493.49390761 96.8368736 1487.88827496 102.15483362 1482.3828125 107.578125 C1478.00714516 111.91389264 1473.80953594 116.30124673 1469.80078125 120.9765625 C1465.45582451 125.85874816 1460.68329623 130.35119502 1456.02734375 134.93359375 C1452.40701013 138.51906059 1448.84892946 142.09941892 1445.53125 145.96875 C1440.49390761 151.8368736 1434.88827496 157.15483362 1429.3828125 162.578125 C1425.00714516 166.91389264 1420.80953594 171.30124673 1416.80078125 175.9765625 C1412.45582451 180.85874816 1407.68329623 185.35119502 1403.02734375 189.93359375 C1399.40701013 193.51906059 1395.84892946 197.09941892 1392.53125 200.96875 C1387.49390761 206.8368736 1381.88827496 212.15483362 1376.3828125 217.578125 C1372.00714516 221.91389264 1367.80953594 226.30124673 1363.80078125 230.9765625 C1359.45582451 235.85874816 1354.68329623 240.35119502 1350.02734375 244.93359375 C1346.40701013 248.51906059 1342.84892946 252.09941892 1339.53125 255.96875 C1334.49390761 261.8368736 1328.88827496 267.15483362 1323.3828125 272.578125 C1319.00714516 276.91389264 1314.80953594 281.30124673 1310.80078125 285.9765625 C1306.45582451 290.85874816 1301.68329623 295.35119502 1297.02734375 299.93359375 C1293.39920863 303.52678696 1289.83430427 307.11595836 1286.5078125 310.9921875 C1282.38653876 315.79355522 1277.8818295 320.18858971 1273.375 324.625 C1268.34256889 329.5795297 1263.39150461 334.46132683 1259 340 C1254.55421083 339.38486597 1250.95419338 337.63834327 1247.03125 335.5703125 C1246.36282074 335.22419922 1245.69439148 334.87808594 1245.00570679 334.52148438 C1242.83405024 333.39515429 1240.66708607 332.26009494 1238.5 331.125 C1236.99525071 330.34301684 1235.49020317 329.56160734 1233.98486328 328.78076172 C1226.75821766 325.02763729 1219.55048695 321.2393311 1212.35180664 317.43286133 C1201.88099114 311.90381661 1191.27067594 306.73288526 1180.56054688 301.68457031 C1177.24965782 300.11811841 1173.94428689 298.54074098 1170.64060974 296.95916748 C1148.26221693 286.24709279 1125.75555811 275.88641145 1103 266 C1102.23421631 265.66695862 1101.46843262 265.33391724 1100.67944336 264.99078369 C1012.89205611 226.84796617 922.73641022 194.16327666 831.55273438 165.13476562 C828.0055052 164.0017584 824.46315356 162.85458367 820.921875 161.703125 C811.22882202 158.5584644 801.5687231 155.50956386 791.6953125 152.98046875 C787.28704221 151.81083255 782.9270719 150.50946577 778.5625 149.1875 C753.32055105 141.55085192 727.96152726 134.3203793 702.46728516 127.57226562 C697.51678961 126.2534233 692.59351361 124.88343409 687.69277954 123.38931274 C674.02719612 119.2503503 660.12932532 115.95716278 646.2722168 112.53112793 C640.61926214 111.13283312 634.96772376 109.72881878 629.31635857 108.32411575 C627.94755467 107.9839234 626.57870545 107.64391338 625.20981026 107.30408859 C616.4266021 105.12289362 607.66103934 102.88526742 598.91523743 100.5585022 C593.23754 99.05091124 587.54287176 97.66598149 581.8125 96.375 C579.58980941 95.86864029 577.36715659 95.36211477 575.14453125 94.85546875 C573.88721191 94.56978027 572.62989258 94.2840918 571.33447266 93.98974609 C566.26568018 92.83502514 561.20146448 91.66059758 556.13671875 90.48828125 C519.85148375 82.09888989 483.5109639 74.175727 446.9453125 67.10205078 C437.23865857 65.22416285 427.54399153 63.31510767 417.875 61.25 C405.97014626 58.71388908 393.9882392 56.63228315 382.00048828 54.53027344 C378.30788794 53.8776837 374.62225497 53.19553169 370.9375 52.5 C369.69355469 52.26539062 368.44960937 52.03078125 367.16796875 51.7890625 C364.9628049 51.37205863 362.75787074 50.95390315 360.55322266 50.53417969 C344.73715795 47.53116577 328.8871666 44.73148527 313.02624512 41.97662354 C310.74837025 41.58097574 308.4706159 41.18463329 306.19299316 40.78753662 C293.72539032 38.61589252 281.25438924 36.53963814 268.7331543 34.70166016 C263.98553308 34.0035614 259.24617676 33.25812603 254.5078125 32.5 C253.35537552 32.3158403 253.35537552 32.3158403 252.17965698 32.12796021 C250.62425998 31.87928187 249.06888083 31.63049186 247.51351929 31.3815918 C235.90480452 29.52697402 224.30024975 27.6878215 212.64208984 26.16821289 C207.2309892 25.45716091 201.83448141 24.67615191 196.44140625 23.83984375 C131.27773627 13.79977046 65.62563408 7.14880673 0 1 C0 0.67 0 0.34 0 0 Z " fill="#EEC030" transform="translate(1600,2524)"/>
<path d="M0 0 C0.95841797 -0.01998047 1.91683594 -0.03996094 2.90429688 -0.06054688 C3.83693359 -0.05990234 4.76957031 -0.05925781 5.73046875 -0.05859375 C6.56344482 -0.06044678 7.3964209 -0.0622998 8.25463867 -0.06420898 C10.8125 0.4375 10.8125 0.4375 13.35631275 2.43684101 C17.94843314 5.09504969 21.45877608 4.99762302 26.6693573 4.94975281 C28.15151866 4.95994634 28.15151866 4.95994634 29.66362268 4.9703458 C32.97283386 4.98829462 36.28134137 4.97783509 39.59057617 4.9675293 C41.96454943 4.97462734 44.33851797 4.98349085 46.71247864 4.99398804 C52.49331858 5.01517008 58.2739639 5.01816441 64.05483588 5.01340278 C70.80228818 5.00894199 77.54961425 5.02789535 84.29702929 5.04846082 C96.35450952 5.08467753 108.4119525 5.10382907 120.46948242 5.11157227 C132.13323707 5.11911218 143.79695705 5.13217136 155.46069336 5.15454102 C156.17720128 5.15591171 156.8937092 5.15728241 157.63192948 5.15869465 C165.47567096 5.17386212 173.31940839 5.19062825 181.16314411 5.20851612 C181.85532857 5.21008809 182.54751303 5.21166006 183.26067278 5.21327967 C184.29518342 5.21562974 184.29518342 5.21562974 185.35059327 5.21802729 C186.38116237 5.22036841 186.38116237 5.22036841 187.43255105 5.22275683 C188.81159597 5.22590713 190.19064083 5.22908714 191.56968562 5.23229728 C200.29120315 5.25250891 209.01268197 5.26576747 217.73422277 5.27135694 C222.75990769 5.27522005 227.78558282 5.28284954 232.81126213 5.2911644 C235.12375486 5.29409655 237.43625046 5.29536637 239.74874496 5.29475212 C256.88916137 5.2910962 273.92912814 5.71316809 290.99609375 7.41796875 C291.95816742 7.51094742 292.92024109 7.60392609 293.91146851 7.69972229 C297.02486667 8.00279438 300.13747322 8.31311319 303.25 8.625 C304.89927994 8.78881165 304.89927994 8.78881165 306.58187866 8.95593262 C343.40769359 12.62202656 380.1388948 17.03376257 416.84826279 21.71046448 C419.07606845 21.99377731 421.30407286 22.27547484 423.53213501 22.5567627 C440.13060069 24.65567414 456.67324594 26.94759851 473.1756134 29.70960999 C481.74522034 31.14031841 490.31989187 32.34094088 498.9375 33.4375 C510.07360057 34.87804742 521.12121156 36.61989747 532.17773438 38.57763672 C540.25069064 40.00570877 548.33223056 41.33101003 556.4375 42.5625 C557.5095166 42.72548584 558.5815332 42.88847168 559.68603516 43.05639648 C561.75675137 43.37034998 563.82754945 43.68376406 565.8984375 43.99658203 C577.75456531 45.79049681 589.56215669 47.70735528 601.33984375 49.96777344 C606.66016517 50.97846641 611.98708447 51.95407739 617.3125 52.9375 C627.14850927 54.75686186 636.98194372 56.588928 646.8125 58.4375 C648.0603125 58.67082031 649.308125 58.90414062 650.59375 59.14453125 C654.66715902 59.90625874 658.73999377 60.67096383 662.8125 61.4375 C663.58658203 61.58300293 664.36066406 61.72850586 665.15820312 61.87841797 C676.52139833 64.01750551 687.86641516 66.23624982 699.20141602 68.52001953 C705.3402567 69.75364436 711.4843939 70.9503438 717.63745117 72.11083984 C744.06193408 77.10680788 770.37232619 82.73574461 796.625 88.5625 C797.61364044 88.78143417 797.61364044 88.78143417 798.62225342 89.00479126 C803.69017649 90.12942674 808.75236238 91.27836742 813.8125 92.4375 C814.85234039 92.67559387 815.89218079 92.91368774 816.96353149 93.15899658 C836.13973954 97.5626394 855.23841024 102.23489172 874.31634521 107.04370117 C880.48219988 108.59754993 886.64914696 110.14704961 892.81640625 111.6953125 C893.80285063 111.94317883 893.80285063 111.94317883 894.80922318 112.19605255 C902.97342086 114.24642335 911.14611413 116.25080317 919.33984375 118.1796875 C932.09259634 121.18431846 944.70272752 124.66155067 957.30447388 128.24224854 C967.46753553 131.12841656 977.63677215 133.95249185 987.875 136.5625 C996.41361175 138.74407874 1004.83351111 141.2160232 1013.24902344 143.83032227 C1019.83879703 145.86811244 1026.45930064 147.72769855 1033.125 149.5 C1042.83003155 152.08580279 1052.3292885 155.13593748 1061.8125 158.4375 C1061.8125 158.7675 1061.8125 159.0975 1061.8125 159.4375 C890.26910593 159.58128084 890.26910593 159.58128084 755.14508057 159.6492157 C753.61740235 159.64991295 752.08972413 159.65061021 750.56204591 159.65130747 C718.49561729 159.66592093 686.42918829 159.6795045 654.36275873 159.69189839 C638.25470846 159.69812536 622.14665827 159.70455023 606.03860814 159.71116221 C603.60877089 159.71215845 601.17893364 159.71314904 598.74909638 159.7141394 C561.33341658 159.72943915 523.91774492 159.74898289 486.5020752 159.78082275 C485.69761652 159.78150725 484.89315784 159.78219174 484.06432163 159.78289698 C471.09408168 159.79395882 458.12384204 159.80537687 445.15360244 159.8168422 C407.7948999 159.84986082 370.43620362 159.88024509 333.07748795 159.89319897 C331.92508246 159.89360048 331.92508246 159.89360048 330.74939606 159.8940101 C313.88389941 159.89983896 297.01840267 159.90431321 280.15290532 159.90750491 C273.36677093 159.90881302 266.58063659 159.91031612 259.79450226 159.91188622 C259.05178997 159.91205335 258.30907769 159.91222049 257.54385897 159.91239269 C233.61455125 159.9178746 209.68529 159.93922889 185.75600103 159.96891104 C161.65053022 159.99873906 137.54510449 160.01299507 113.43961476 160.00561994 C98.48106956 160.00106086 83.52268329 160.00998634 68.56416774 160.04148772 C59.02483906 160.06020808 49.48562087 160.06083883 39.94628462 160.04665907 C34.50759889 160.03909559 29.06923197 160.03949359 23.63058016 160.06191591 C18.6814931 160.0821651 13.73297332 160.07933482 8.78389487 160.05819988 C7.00586298 160.05463258 5.22778928 160.05942617 3.44981092 160.07367622 C-10.76051033 160.180335 -21.42135343 158.04435251 -32 147.75390625 C-41.66326568 137.52119813 -45.32672307 126.56396349 -45.34863281 112.51123047 C-45.35608017 111.35377068 -45.35608017 111.35377068 -45.36367798 110.17292786 C-45.37821771 107.63350513 -45.3850891 105.09414493 -45.390625 102.5546875 C-45.39345238 101.68153019 -45.39627975 100.80837288 -45.39919281 99.90875626 C-45.41415499 95.28487092 -45.42340227 90.66101652 -45.42773438 86.03710938 C-45.43320401 81.2897696 -45.45720864 76.54271879 -45.48570633 71.79546928 C-45.50444711 68.12001757 -45.50954443 64.44463376 -45.51107025 60.76913834 C-45.51407329 59.02065584 -45.52202111 57.27217385 -45.53525543 55.52373886 C-45.64917334 39.31213554 -44.05418021 24.38088356 -32.3125 12.0625 C-22.74836748 3.18800132 -12.94945042 -0.09696661 0 0 Z " fill="#CA292E" transform="translate(1332.1875,2518.5625)"/>
<path d="M0 0 C-0.66193359 0.37584229 -1.32386719 0.75168457 -2.00585938 1.13891602 C-17.22794764 9.80152044 -32.21406152 18.7455985 -47.01464844 28.11621094 C-50.04675116 30.02950049 -53.08799659 31.92732794 -56.1328125 33.8203125 C-57.66977783 34.77647461 -57.66977783 34.77647461 -59.23779297 35.75195312 C-61.13458542 36.93141428 -63.03196371 38.10993432 -64.93017578 39.28710938 C-80.96223795 49.28007192 -96.69792347 59.74261219 -112.40942383 70.22949219 C-115.06411766 72.00107953 -117.72045599 73.77018068 -120.37695312 75.5390625 C-135.40191682 85.55354128 -150.35262618 95.67807317 -165.125 106.0625 C-166.35935791 106.92862915 -166.35935791 106.92862915 -167.61865234 107.81225586 C-170.08000469 109.54022277 -172.54008198 111.26999208 -175 113 C-175.73992188 113.51949219 -176.47984375 114.03898437 -177.2421875 114.57421875 C-193.85018026 126.23578767 -210.2626134 138.15550804 -226.58251953 150.21630859 C-229.04034285 152.0297662 -231.50201569 153.83787751 -233.96484375 155.64453125 C-242.48732818 161.89958117 -250.95090725 168.21004518 -259.30419922 174.68994141 C-261.87393543 176.67514217 -264.45721923 178.64247896 -267.03930664 180.61157227 C-276.74189968 188.01174296 -286.38225231 195.49000502 -296 203 C-296.62503418 203.48710449 -297.25006836 203.97420898 -297.89404297 204.47607422 C-305.34535798 210.28464365 -312.71469458 216.18454527 -320.03295898 222.15991211 C-324.37774462 225.70145123 -328.76472067 229.1815548 -333.1875 232.625 C-338.88880411 237.07035765 -344.4202948 241.68920585 -349.91796875 246.3828125 C-352.74683013 248.79496524 -355.61575122 251.15419998 -358.5 253.5 C-363.10248466 257.24620845 -367.63722411 261.06522787 -372.1574707 264.90966797 C-375.63243023 267.85958904 -379.14453073 270.75664406 -382.6875 273.625 C-387.08370366 277.20049415 -391.28985859 280.94091209 -395.4765625 284.7578125 C-398.05082358 287.04515904 -400.69289489 289.21548271 -403.375 291.375 C-408.51758543 295.53562075 -413.37451737 299.94356304 -418.22265625 304.4375 C-421.10962121 307.10114137 -424.04923334 309.69148348 -427.015625 312.265625 C-431.05374691 315.79500714 -435.01914681 319.40634226 -439 323 C-440.66640851 324.50028679 -442.33307353 326.00028872 -444 327.5 C-444.82757812 328.24507812 -445.65515625 328.99015625 -446.5078125 329.7578125 C-448.14739879 331.23292618 -449.78799655 332.70691652 -451.4296875 334.1796875 C-462.40181708 344.03006581 -473.22591541 354.03516754 -483.98632812 364.11572266 C-486.04535122 366.04243704 -488.10851428 367.9646513 -490.171875 369.88671875 C-498.09093087 377.28208045 -505.88355967 384.77394443 -513.47241211 392.50927734 C-516.39849036 395.47603323 -519.34599382 398.33434167 -522.5234375 401.03125 C-528.66548714 406.33084233 -534.31253181 412.16409347 -540.03637695 417.90600586 C-542.05764268 419.9326298 -544.08419574 421.95385547 -546.11132812 423.97460938 C-551.71328255 429.57397522 -557.27681634 435.14236427 -562.40405273 441.18579102 C-566.45444566 445.7901156 -570.95771228 449.99197885 -575.328125 454.2890625 C-579.56806732 458.4857401 -583.61945353 462.76068326 -587.5078125 467.28515625 C-589.25043724 469.28780614 -591.09059505 471.1564366 -593 473 C-596.10246002 476.06117253 -598.98106424 479.23142268 -601.8203125 482.53515625 C-604.81343291 485.91984976 -607.90826114 489.20550434 -611 492.5 C-615.17884816 496.95667687 -619.32150674 501.42489352 -623.3046875 506.05859375 C-625.45155051 508.51709816 -627.66537132 510.910289 -629.875 513.3125 C-633.18336914 516.93523905 -636.36012358 520.61692891 -639.4375 524.4375 C-642.65945291 528.43226701 -646.00680102 532.24529425 -649.5 536 C-653.73398863 540.55591777 -657.72931853 545.25271393 -661.62890625 550.09765625 C-664.31830412 553.38962103 -667.09148901 556.60024497 -669.875 559.8125 C-674.38467418 565.03042887 -678.69778138 570.36761441 -682.9230957 575.81738281 C-686.03877944 579.82078158 -689.26054293 583.71176369 -692.5625 587.5625 C-697.44165541 593.26627725 -702.03600637 599.16256787 -706.57666016 605.13818359 C-709.35939484 608.77817239 -712.18331783 612.38626473 -715 616 C-716.20719965 617.55195236 -717.41423361 619.10403361 -718.62109375 620.65625 C-720.2095575 622.69913053 -721.79831235 624.7417492 -723.39111328 626.78125 C-730.26421739 635.58220825 -736.81511539 644.5920613 -743.32226562 653.66503906 C-744.97518284 655.96546111 -746.63465422 658.26098095 -748.296875 660.5546875 C-755.17616367 670.04820847 -761.98405855 679.58885642 -768.72216797 689.18310547 C-769.85412792 690.79259075 -770.99114596 692.39851604 -772.12890625 694.00390625 C-775.59473882 698.90697392 -778.86875185 703.8761394 -782 709 C-782.95517769 705.97491984 -783.01457066 704.10888967 -782.13671875 701.0703125 C-781.80329468 699.90036743 -781.80329468 699.90036743 -781.46313477 698.70678711 C-781.20717529 697.85479736 -780.95121582 697.00280762 -780.6875 696.125 C-780.42187256 695.21951416 -780.15624512 694.31402832 -779.88256836 693.38110352 C-776.27636248 681.29432528 -772.22315446 669.34710519 -768.15917969 657.40820312 C-767.18380439 654.54041897 -766.21879774 651.66949756 -765.2578125 648.796875 C-746.71686962 593.98166852 -721.39779396 540.77529665 -692.53662109 490.67919922 C-691.02619909 488.04567983 -689.53556811 485.40194954 -688.05078125 482.75390625 C-661.36396033 435.28588882 -629.71536131 389.92894288 -595 348 C-593.88472842 346.63597912 -592.77020703 345.27134466 -591.65625 343.90625 C-585.8864639 336.84711318 -580.0996558 329.84640127 -573.94140625 323.12109375 C-572.09671329 321.10566462 -570.29243431 319.06191191 -568.5 317 C-564.38684139 312.28445661 -560.20178687 307.63659153 -556 303 C-555.22519287 302.13834229 -554.45038574 301.27668457 -553.65209961 300.38891602 C-544.15493616 289.95007493 -534.1620466 280.01100003 -524.17272949 270.04577637 C-522.26723056 268.14289331 -520.3654705 266.23629473 -518.46366501 264.32972145 C-516.16051158 262.02205663 -513.85352087 259.71823561 -511.546875 257.4140625 C-510.70711121 256.57227448 -509.86734741 255.73048645 -509.00213623 254.8631897 C-504.69589918 250.5738876 -500.32459831 246.42715923 -495.70924377 242.47113037 C-493.13692393 240.25715838 -490.67091729 237.93822506 -488.1875 235.625 C-483.49105346 231.28119787 -478.63725046 227.19583574 -473.65234375 223.18359375 C-471.00732363 221.00602932 -468.46787475 218.74681237 -465.9375 216.4375 C-461.12509075 212.0632693 -456.11800125 208.00922336 -451 204 C-450.00871094 203.21367188 -449.01742188 202.42734375 -447.99609375 201.6171875 C-440.88661241 195.9847363 -433.70525372 190.44675084 -426.5 184.9375 C-425.67072998 184.30134766 -424.84145996 183.66519531 -423.98706055 183.00976562 C-410.22949832 172.52120825 -395.95739469 162.83556037 -381.5625 153.25 C-380.63147461 152.62960846 -379.70044922 152.00921692 -378.74121094 151.37002563 C-365.0194338 142.23636462 -351.23894168 133.31148934 -337 125 C-335.01427539 123.82429902 -333.02860048 122.64851409 -331.04296875 121.47265625 C-279.33773301 91.06230568 -224.54319207 65.07753421 -168 45 C-167.16355957 44.70109863 -166.32711914 44.40219727 -165.46533203 44.09423828 C-156.37183678 40.84934807 -147.27813968 37.66708477 -138.01953125 34.921875 C-132.61207907 33.27095817 -127.26350248 31.43600781 -121.9152832 29.60327148 C-110.44501764 25.6904642 -98.86702959 22.29075808 -87.1875 19.0625 C-86.25046234 18.80232086 -85.31342468 18.54214172 -84.34799194 18.27407837 C-68.3098593 13.82649469 -52.23165267 9.68782801 -36 6 C-34.57966951 5.67304955 -33.15942599 5.34572114 -31.73925781 5.01806641 C-28.03019133 4.16374927 -24.31858953 3.32136517 -20.60482788 2.48770142 C-19.17392731 2.16571403 -17.74359283 1.8411992 -16.31387329 1.51400757 C-14.33498582 1.0628005 -12.35308907 0.6248534 -10.37109375 0.1875 C-8.6684436 -0.19341797 -8.6684436 -0.19341797 -6.93139648 -0.58203125 C-4.17712669 -0.97474466 -2.58563367 -0.92690297 0 0 Z " fill="#EBB962" transform="translate(2094,1378)"/>
<path d="M0 0 C12.26983128 0.59370151 20.65622527 6.18067335 29 15 C36.76668918 24.48353626 39.14228817 34.8394658 39.16113281 46.92626953 C39.16609772 47.69790939 39.17106262 48.46954926 39.17617798 49.26457214 C39.19071771 51.80399487 39.1975891 54.34335507 39.203125 56.8828125 C39.20595238 57.75596981 39.20877975 58.62912712 39.21169281 59.52874374 C39.22665499 64.15262908 39.23590227 68.77648348 39.24023438 73.40039062 C39.24570401 78.1477304 39.26970864 82.89478121 39.29820633 87.64203072 C39.31694711 91.31748243 39.32204443 94.99286624 39.32357025 98.66836166 C39.32657329 100.41684416 39.33452111 102.16532615 39.34775543 103.91376114 C39.4612663 120.067439 37.93971304 134.89986741 26.4375 147.25 C19.45193122 153.91041468 10.49147978 159.12692123 0.68015003 159.12304783 C-0.98516428 159.1260344 -0.98516428 159.1260344 -2.68412131 159.12908131 C-3.9088134 159.12616847 -5.13350548 159.12325563 -6.39530945 159.12025452 C-7.69235882 159.12110894 -8.98940819 159.12196337 -10.32576209 159.12284368 C-13.93329404 159.12508549 -17.54079643 159.12107163 -21.14832461 159.11606562 C-25.03583376 159.11175682 -28.92334118 159.11320785 -32.81085205 159.1139679 C-39.5486713 159.11449286 -46.28648089 159.11134895 -53.02429771 159.10573006 C-62.76611176 159.09761131 -72.50792113 159.09499945 -82.24973819 159.09374207 C-98.05427147 159.09155214 -113.8587996 159.08489365 -129.66333008 159.07543945 C-145.01814752 159.06626381 -160.37296357 159.05918372 -175.7277832 159.05493164 C-176.67387263 159.05466892 -177.61996206 159.05440619 -178.59472086 159.05413551 C-183.34085954 159.05283049 -188.08699822 159.05156678 -192.83313692 159.05032361 C-232.22209489 159.03995284 -271.6110471 159.02233612 -311 159 C-310.05481992 157.89404656 -309.10917127 156.78849356 -308.16333008 155.68310547 C-307.3734948 154.75955765 -307.3734948 154.75955765 -306.56770325 153.81735229 C-298.81807758 144.83363677 -290.50923277 136.40012525 -282.05151367 128.08837891 C-278.77971452 124.85707709 -275.60758427 121.60473835 -272.61328125 118.11328125 C-267.54178804 112.22285182 -261.91631666 106.87278955 -256.3828125 101.421875 C-252.00714516 97.08610736 -247.80953594 92.69875327 -243.80078125 88.0234375 C-239.45582451 83.14125184 -234.68329623 78.64880498 -230.02734375 74.06640625 C-226.40701013 70.48093941 -222.84892946 66.90058108 -219.53125 63.03125 C-214.49390761 57.1631264 -208.88827496 51.84516638 -203.3828125 46.421875 C-199.01145215 42.09037508 -194.81845036 37.70754311 -190.81396484 33.03662109 C-187.17061755 28.94606885 -183.21460627 25.15396748 -179.3125 21.3125 C-177.63954096 19.66518018 -175.96888827 18.01551414 -174.30078125 16.36328125 C-173.20503784 15.28494019 -173.20503784 15.28494019 -172.0871582 14.18481445 C-169.90453114 11.97601584 -169.90453114 11.97601584 -167.85620117 9.22729492 C-166.93738159 8.12478394 -166.93738159 8.12478394 -166 7 C-165.34 7 -164.68 7 -164 7 C-164 6.34 -164 5.68 -164 5 C-110.54 5 -57.08 5 -2 5 C-1.34 3.35 -0.68 1.7 0 0 Z " fill="#CA292E" transform="translate(3349,2519)"/>
<path d="M0 0 C14.81487294 -0.58675346 29.20191264 1.23004144 43.875 3.125 C46.4088664 3.4449654 48.94280292 3.76437595 51.47680664 4.08325195 C78.98186541 7.56530781 106.46047067 11.27602321 133.84619141 15.60449219 C141.8183166 16.85374849 149.80968653 17.90550578 157.8125 18.9375 C169.05182404 20.39505131 180.20489525 22.16407353 191.36401367 24.13989258 C199.43736842 25.5680987 207.51932001 26.89344765 215.625 28.125 C216.6970166 28.28798584 217.7690332 28.45097168 218.87353516 28.61889648 C220.94425137 28.93284998 223.01504945 29.24626406 225.0859375 29.55908203 C236.94206531 31.35299681 248.74965669 33.26985528 260.52734375 35.53027344 C265.84766517 36.54096641 271.17458447 37.51657739 276.5 38.5 C286.33600927 40.31936186 296.16944372 42.151428 306 44 C307.2478125 44.23332031 308.495625 44.46664062 309.78125 44.70703125 C313.85465902 45.46875874 317.92749377 46.23346383 322 47 C322.77408203 47.14550293 323.54816406 47.29100586 324.34570312 47.44091797 C335.70889833 49.58000551 347.05391516 51.79874982 358.38891602 54.08251953 C364.5277567 55.31614436 370.6718939 56.5128438 376.82495117 57.67333984 C403.24943408 62.66930788 429.55982619 68.29824461 455.8125 74.125 C456.80114044 74.34393417 456.80114044 74.34393417 457.80975342 74.56729126 C462.87767649 75.69192674 467.93986238 76.84086742 473 78 C474.03984039 78.23809387 475.07968079 78.47618774 476.15103149 78.72149658 C495.32723954 83.1251394 514.42591024 87.79739172 533.50384521 92.60620117 C539.66969988 94.16004993 545.83664696 95.70954961 552.00390625 97.2578125 C552.99035063 97.50567883 552.99035063 97.50567883 553.99672318 97.75855255 C562.16092086 99.80892335 570.33361413 101.81330317 578.52734375 103.7421875 C591.28009634 106.74681846 603.89022752 110.22405067 616.49197388 113.80474854 C626.65503553 116.69091656 636.82427215 119.51499185 647.0625 122.125 C655.60111175 124.30657874 664.02101111 126.7785232 672.43652344 129.39282227 C679.02629703 131.43061244 685.64680064 133.29019855 692.3125 135.0625 C702.01753155 137.64830279 711.5167885 140.69843748 721 144 C721 144.33 721 144.66 721 145 C694.13476183 145.40186594 667.26999058 145.69917114 640.40232468 145.88080692 C627.9195176 145.96748626 615.438624 146.08550996 602.95703125 146.2824707 C498.5752886 147.89702232 498.5752886 147.89702232 452.34606934 130.00605774 C445.1661958 127.24471834 437.80014228 125.21641893 430.37617874 123.22901154 C427.02616937 122.32251144 423.69417484 121.35536221 420.359375 120.39453125 C419.61852661 120.18245026 418.87767822 119.97036926 418.11437988 119.75186157 C414.3931555 118.6858633 410.67209687 117.61928895 406.95117188 116.55224609 C401.50949191 114.99184534 396.06737935 113.43295961 390.625 111.875 C389.73007843 111.61871826 388.83515686 111.36243652 387.91311646 111.09838867 C375.56708779 107.56473606 363.20225687 104.11338886 350.81347656 100.73266602 C342.49779613 98.44951799 334.2526187 95.97544918 326.01464844 93.42797852 C319.65353637 91.47187502 313.26746699 89.70522967 306.82250977 88.04956055 C298.95517008 86.01726579 291.13387179 83.82599022 283.3125 81.625 C282.06154541 81.2738916 280.81059082 80.9227832 279.52172852 80.56103516 C271.56409071 78.31715608 263.62304988 76.01997148 255.6875 73.69921875 C242.37036149 69.80502814 229.03026139 65.99280497 215.6875 62.1875 C213.21059244 61.48053719 210.73370465 60.77350514 208.25683594 60.06640625 C203.38599539 58.67595237 198.51506339 57.28581971 193.64404297 55.89599609 C185.71704212 53.63410429 177.79081668 51.36950377 169.86477661 49.10424805 C167.75751022 48.50214587 165.65013489 47.90042646 163.54272461 47.29882812 C157.46421905 45.56338291 151.38667347 43.82478688 145.3125 42.07421875 C134.43116208 38.94339384 123.5378131 35.86433309 112.62109375 32.859375 C111.60361053 32.57906937 110.58612732 32.29876373 109.53781128 32.00996399 C104.46294822 30.61242019 99.38712906 29.21852821 94.30957031 27.83081055 C82.49858299 24.5911642 70.7676276 21.143936 59.06079102 17.54663086 C53.35638373 15.79589502 47.62802148 14.1458764 41.875 12.5625 C40.87927979 12.28591553 39.88355957 12.00933105 38.85766602 11.72436523 C35.57267205 10.81297586 32.28642476 9.90621573 29 9 C27.69024111 8.63811425 26.38050907 8.27613135 25.07080078 7.9140625 C16.71526863 5.60427474 8.3583187 3.29968614 0 1 C0 0.67 0 0.34 0 0 Z " fill="#B0262B" transform="translate(1673,2533)"/>
<path d="M0 0 C10.15937052 9.92310609 11.73898638 22.71286161 11.97998047 36.25195312 C12.14828783 63.03334816 5.40645564 92.63338962 -13.8671875 112.4375 C-18.34526357 116.44344665 -22.39270575 118.72430341 -28.4375 119.125 C-33.41975342 118.48212859 -36.32026822 116.99460645 -39.58203125 113.11499023 C-50.29482236 98.47630128 -50.28941829 78.42101309 -47.73046875 61.11328125 C-47.0496557 57.57086897 -46.23215539 54.11202668 -45.3125 50.625 C-45.0959375 49.62082031 -44.879375 48.61664062 -44.65625 47.58203125 C-40.82489938 30.31814781 -33.00951223 13.24763176 -19.3125 1.625 C-18.549375 0.965 -17.78625 0.305 -17 -0.375 C-11.37363487 -2.46853121 -5.51303889 -2.28843124 0 0 Z " fill="#FEFEFD" transform="translate(2319.3125,1518.375)"/>
<path d="M0 0 C4.81317865 6.31729698 4.66237048 11.83585858 4 19.625 C0.05826391 40.60825377 -12.52444578 57.60850579 -27 72.625 C-27.66644531 73.35460938 -28.33289062 74.08421875 -29.01953125 74.8359375 C-37.38465455 83.74699517 -47.6991318 90.11551894 -59 94.625 C-59.81597656 94.98980469 -60.63195313 95.35460938 -61.47265625 95.73046875 C-65.92037855 97.30470122 -70.35132999 97.18475175 -75 96.625 C-80.14853681 94.0507316 -83.182008 91.07897599 -85 85.625 C-86.59437846 63.06846533 -76.23941039 44.49152642 -62 27.625 C-61.22011719 26.68140625 -60.44023438 25.7378125 -59.63671875 24.765625 C-48.34631598 11.6828015 -33.48720342 -0.00319915 -16.5 -4.25 C-10.28826491 -4.47184768 -4.95683444 -3.9241606 0 0 Z " fill="#FEFEFD" transform="translate(1949,1518.375)"/>
<path d="M0 0 C0.86431641 -0.02900391 1.72863281 -0.05800781 2.61914062 -0.08789062 C9.40807823 -0.15449907 14.43708739 1.32753623 19.78442383 5.58349609 C22.50546313 8.33057631 23.54466103 10.80678396 23.75 14.5625 C22.83557347 28.92862201 12.10523304 40.59396256 1.93994141 49.81005859 C-16.42368523 65.55396474 -40.90874554 77.41068815 -65.3125 77.5625 C-66.14136719 77.583125 -66.97023438 77.60375 -67.82421875 77.625 C-73.65732161 77.66209445 -78.01460642 76.9243104 -82.45703125 72.77734375 C-85.81085411 68.39157539 -87.36965108 65.79932914 -87.26953125 60.12890625 C-85.3537392 48.32304242 -77.03136217 39.34296418 -68.8125 31.3125 C-67.80316406 30.27222656 -67.80316406 30.27222656 -66.7734375 29.2109375 C-49.71684829 12.6979846 -23.81675898 0.26287813 0 0 Z " fill="#FEFEFD" transform="translate(2730.8125,1525.6875)"/>
<path d="M0 0 C24.31491709 13.76256091 44.66703244 37.46459327 53.875 63.9375 C55.79074211 70.99609741 56.18308219 78.62821576 53.75 85.5625 C51.15325702 89.17939201 49.2837061 91.57209797 45 93 C27.64115428 94.50410453 14.3318804 86.56793625 1.375 75.75 C-16.08570577 60.71163398 -34.16862158 38.72073874 -36.2734375 14.90625 C-36.46766297 8.87031988 -36.23089591 4.16943345 -33 -1 C-24.52718042 -9.93080983 -9.45851361 -4.8056299 0 0 Z " fill="#FEFEFD" transform="translate(2116,1433)"/>
<path d="M0 0 C5.428175 4.30300708 10.07224222 9.07834326 14.375 14.5 C14.85066406 15.08265625 15.32632813 15.6653125 15.81640625 16.265625 C19.40964291 21.4238602 19.40686976 27.52003034 18.375 33.5 C16.59328454 37.53951684 13.9575487 39.72709686 10.01953125 41.65039062 C3.10088574 44.28192861 -2.93467476 45.13808282 -10.3125 45 C-11.36123291 44.98791504 -12.40996582 44.97583008 -13.49047852 44.96337891 C-22.3915559 44.737966 -30.18939711 43.32110784 -38.625 40.5 C-39.32173828 40.28037598 -40.01847656 40.06075195 -40.73632812 39.83447266 C-61.24638429 33.35978335 -83.69159327 22.07236895 -94.56640625 2.6640625 C-96.70145366 -1.70057316 -97.12501702 -5.70892778 -96.625 -10.5 C-94.57448128 -16.11194596 -91.52286674 -19.08821877 -86.1875 -21.6875 C-57.55342075 -30.7665983 -23.01908365 -16.58079589 0 0 Z " fill="#FEFEFD" transform="translate(2555.625,1481.5)"/>
<path d="M0 0 C283.14 0 566.28 0 858 0 C858 0.33 858 0.66 858 1 C857.26507813 1.00071214 856.53015626 1.00142429 855.77296403 1.00215801 C775.78251828 1.07970438 695.79207376 1.15847486 615.80163574 1.2436676 C614.60728276 1.24493928 613.41292978 1.24621096 612.18238429 1.24752118 C586.2275751 1.27516378 560.27276614 1.30302679 534.31795743 1.33111694 C521.59022687 1.34489046 508.86249626 1.35861526 496.13476562 1.37231445 C494.86818509 1.37367854 493.60160456 1.37504262 492.2966428 1.37644804 C451.2230291 1.42066071 410.14941296 1.4616546 369.07579432 1.50098413 C326.87689441 1.54140811 284.67799907 1.58506977 242.47910679 1.63282111 C236.52252448 1.63955993 230.56594212 1.64626164 224.60935974 1.65294075 C223.43698752 1.65425648 222.26461529 1.65557221 221.05671664 1.6569278 C202.16408948 1.67803504 183.27146058 1.69571644 164.37882882 1.71212531 C145.39789048 1.72868367 126.41695867 1.74883075 107.43602806 1.77266841 C96.15104303 1.78673113 84.86606308 1.79801491 73.58107163 1.80536438 C66.04860067 1.81054073 58.51613942 1.81929418 50.98367576 1.83098774 C46.68803329 1.83755305 42.39240479 1.84253319 38.09675699 1.84316199 C34.18960031 1.84376449 30.28247723 1.84891988 26.37533066 1.85772062 C24.96993024 1.86008596 23.5645258 1.86078701 22.15912387 1.8596265 C15.35141494 1.85486949 8.73156872 1.93677122 2 3 C2 2.34 2 1.68 2 1 C1.34 0.67 0.68 0.34 0 0 Z " fill="#A65A3A" transform="translate(1324,2678)"/>
<path d="M0 0 C103.62 0 207.24 0 314 0 C313.34 0.33 312.68 0.66 312 1 C312 1.66 312 2.32 312 3 C310.77457269 2.83826325 309.54914537 2.67652651 308.2865839 2.50988865 C302.32867364 1.85270444 296.40325402 1.84686297 290.41465759 1.84178162 C289.1696514 1.83684364 287.92464522 1.83190566 286.64191157 1.82681805 C283.20756017 1.81416707 279.77324877 1.80584465 276.33888352 1.79939139 C272.62733898 1.79134798 268.91581461 1.77766392 265.20428467 1.76467896 C258.78088453 1.74297183 252.3574823 1.72480642 245.93406487 1.70907402 C236.6469808 1.68632269 227.35991912 1.65818729 218.07285411 1.62875474 C203.00373882 1.58114319 187.93461435 1.53786165 172.86547852 1.49731445 C158.23070563 1.45792672 143.59594088 1.41649267 128.96118164 1.37231445 C127.60713892 1.36822804 127.60713892 1.36822804 126.2257418 1.36405908 C121.69700381 1.35037906 117.16826596 1.3366589 112.63952816 1.32291877 C75.09303571 1.20905516 37.54652586 1.10222354 0 1 C0 0.67 0 0.34 0 0 Z " fill="#A95F40" transform="translate(3037,2678)"/>
<path d="M0 0 C0.33 0 0.66 0 1 0 C1.29103053 4.42467021 1.57550004 8.84970477 1.85449219 13.27514648 C1.94979596 14.77330256 2.04673945 16.27135545 2.14550781 17.76928711 C2.81014142 27.87103979 3.09872115 37.87491173 3 48 C-7.89 48.495 -7.89 48.495 -19 49 C-19 48.34 -19 47.68 -19 47 C-12.4 47 -5.8 47 1 47 C0.85766209 43.54149162 0.71121743 40.08323527 0.5625 36.625 C0.52318359 35.65949219 0.48386719 34.69398438 0.44335938 33.69921875 C0.20292305 28.18767849 -0.17290583 22.72550498 -0.78881836 17.24267578 C-1.33987487 11.39064673 -1.18330665 5.7686199 0 0 Z " fill="#ECBF72" transform="translate(3420,2103)"/>
<path d="M0 0 C0 3 0 3 -1.72485352 5.04956055 C-2.51819092 5.82082275 -3.31152832 6.59208496 -4.12890625 7.38671875 C-4.99966797 8.24330078 -5.87042969 9.09988281 -6.76757812 9.98242188 C-7.68990234 10.87509766 -8.61222656 11.76777344 -9.5625 12.6875 C-15.02066586 18.01206064 -20.38331082 23.31121252 -25.34008789 29.10864258 C-28.21967637 32.38973862 -31.33064811 35.43588787 -34.4375 38.5 C-35.07365234 39.13164063 -35.70980469 39.76328125 -36.36523438 40.4140625 C-37.90782806 41.94505774 -39.45357314 43.47287667 -41 45 C-41.66 44.67 -42.32 44.34 -43 44 C-29.09628603 28.90393077 -14.56096711 14.45709717 0 0 Z " fill="#EDBF6F" transform="translate(1515,1601)"/>
<path d="M0 0 C1.94716646 0.11675815 3.89793477 0.17669925 5.84838867 0.20532227 C7.0494072 0.22526749 8.25042572 0.24521271 9.48783875 0.26576233 C10.78478165 0.28247482 12.08172455 0.29918732 13.41796875 0.31640625 C14.7589023 0.33698293 16.09982946 0.35797959 17.44075012 0.37937927 C20.96701889 0.43452627 24.49334548 0.48396794 28.01971436 0.53222656 C31.61931493 0.5824955 35.21883173 0.63815339 38.81835938 0.69335938 C45.87883352 0.80085071 52.93938282 0.90231565 60 1 C60 1.33 60 1.66 60 2 C36.57 2 13.14 2 -11 2 C-7.06425135 -0.62383243 -4.54354105 -1.51451368 0 0 Z " fill="#F1D1A1" transform="translate(3352,2984)"/>
<path d="M0 0 C0.33 0 0.66 0 1 0 C1.33 6.93 1.66 13.86 2 21 C1.67 21 1.34 21 1 21 C-1.86096601 14.02639535 -1.49477149 7.28701103 0 0 Z " fill="#EBBC68" transform="translate(3420,2103)"/>
<path d="M0 0 C0.33 0 0.66 0 1 0 C1.33 5.61 1.66 11.22 2 17 C1.34 17 0.68 17 0 17 C-2.45063476 12.09873048 -0.87459663 5.24757977 0 0 Z " fill="#EAB75C" transform="translate(3418,2084)"/>
<path d="M0 0 C0.66 0.33 1.32 0.66 2 1 C-1.96 4.96 -5.92 8.92 -10 13 C-10.99 12.67 -11.98 12.34 -13 12 C-8.71 8.04 -4.42 4.08 0 0 Z " fill="#EEC57A" transform="translate(1545,1573)"/>
<path d="M0 0 C4.29 0 8.58 0 13 0 C10.09907498 1.93395001 9.10325263 2.30131941 5.8125 2.625 C4.554375 2.74875 3.29625 2.8725 2 3 C2 2.34 2 1.68 2 1 C1.34 0.67 0.68 0.34 0 0 Z " fill="#DAA38F" transform="translate(1324,2678)"/>
</svg>
